<?xml version="1.0" encoding="utf-8"?>
<!-- Generated with PSSVG 0.2.10 <https://github.com/StartAutomating/PSSVG> -->
<svg viewBox="0 0 200 200" xmlns:xlink="http://www.w3.org/1999/xlink" xmlns="http://www.w3.org/2000/svg">
  <path stroke="#112244" fill="transparent" d="M 100 200 L 195.105651629515 130.901699437495 L 158.778525229247 19.0983005625053 L 41.2214747707527 19.0983005625052 L 4.89434837048461 130.901699437495 Z">
    <animateTransform from="0 100 100" to="360 100 100" dur="3.75s" attributeName="transform" type="rotate" repeatCount="indefinite" />
  </path>
  <path stroke="#224488" fill="transparent" d="M 103.876906806208 198.673867328771 L 195.042454599798 126.804744424176 L 154.862560510686 17.8923757851237 L 38.8644725056539 22.4499530755264 L 7.3536055776547 134.179059386402 Z">
    <animateTransform from="0 100 100" to="360 100 100" dur="3.75s" attributeName="transform" type="rotate" repeatCount="indefinite" />
  </path>
  <path stroke="#4488ff" fill="transparent" d="M 107.649761833465 197.19944003898 L 194.806067238773 122.760922975951 L 150.943610059805 16.867583975476 L 36.6788152878071 25.860418353997 L 9.92174558014952 137.311634655596 Z">
    <animateTransform from="0 100 100" to="360 100 100" dur="3.75s" attributeName="transform" type="rotate" repeatCount="indefinite" />
  </path>
  <path stroke="#112244" fill="transparent" d="M 111.312974505317 195.582838981912 L 194.400583238811 118.777443494052 L 147.029794494082 16.0222593192433 L 34.6654282424543 29.3214584668152 L 12.5912195193359 140.295999737977 Z">
    <animateTransform from="0 100 100" to="360 100 100" dur="3.75s" attributeName="transform" type="rotate" repeatCount="indefinite" />
  </path>
  <path stroke="#224488" fill="transparent" d="M 114.861274178822 193.830392356538 L 193.830392356538 114.861274178822 L 143.129097475257 15.354380202105 L 32.8248557872779 32.8248557872779 L 15.354380202105 143.129097475257 Z">
    <animateTransform from="0 100 100" to="360 100 100" dur="3.75s" attributeName="transform" type="rotate" repeatCount="indefinite" />
  </path>
  <path stroke="#4488ff" fill="transparent" d="M 118.289717689012 191.948620037803 L 193.100167839524 111.019131011672 L 139.249350394134 14.8615774538986 L 31.1572647404044 36.3624301062867 L 18.2034993369253 145.80824139034 Z">
    <animateTransform from="0 100 100" to="360 100 100" dur="3.75s" attributeName="transform" type="rotate" repeatCount="indefinite" />
  </path>
  <path stroke="#112244" fill="transparent" d="M 121.593696156671 189.944217636785 L 192.214853370314 107.257466354826 L 135.398217493771 14.541143242706 L 29.6624481819971 39.926055529458 L 21.1307847972465 148.331117236225 Z">
    <animateTransform from="0 100 100" to="360 100 100" dur="3.75s" attributeName="transform" type="rotate" repeatCount="indefinite" />
  </path>
  <path stroke="#224488" fill="transparent" d="M 124.768941050188 187.824040326395 L 191.179649556966 103.582458188015 L 131.583181458321 14.3900405970733 L 28.339830057132 43.5076771254776 L 24.1283978773927 150.695783763039 Z">
    <animateTransform from="0 100 100" to="360 100 100" dur="3.75s" attributeName="transform" type="rotate" repeatCount="indefinite" />
  </path>
  <path stroke="#4488ff" fill="transparent" d="M 127.811529493745 185.595086466564 L 190 100 L 127.811529493745 14.4049135334361 L 27.1884705062548 47.0993272936774 L 27.1884705062547 152.900672706323 Z">
    <animateTransform from="0 100 100" to="360 100 100" dur="3.75s" attributeName="transform" type="rotate" repeatCount="indefinite" />
  </path>
  <path stroke="#112244" fill="transparent" d="M 130.717888815628 183.26448106312 L 188.681576966364 96.5156913513826 L 124.090339925525 14.5820977647388 L 26.2070719081491 50.6931418195102 L 30.3031223843339 154.944588001248 Z">
    <animateTransform from="0 100 100" to="360 100 100" dur="3.75s" attributeName="transform" type="rotate" repeatCount="indefinite" />
  </path>
  <path stroke="#224488" fill="transparent" d="M 133.484800331945 180.839459094738 L 187.230266701649 93.1348291238136 L 120.426469337392 14.9176319652034 L 25.393985619017 54.2813755873545 L 33.4644780099973 156.826704228891 Z">
    <animateTransform from="0 100 100" to="720 100 100" dur="3.75s" attributeName="transform" type="rotate" repeatCount="indefinite" />
  </path>
  <path stroke="#4488ff" fill="transparent" d="M 136.109402362603 178.327348742413 L 185.652154412362 89.8623994692615 L 116.826540273891 15.4072695652214 L 24.7472193899713 57.8564179208876 L 36.6646835611721 158.546564302216 Z">
    <animateTransform from="0 100 100" to="720 100 100" dur="3.75s" attributeName="transform" type="rotate" repeatCount="indefinite" />
  </path>
  <path stroke="#112244" fill="transparent" d="M 138.589192477862 175.735554556011 L 183.953508950587 86.7030704715804 L 113.29692952842 16.0464910494133 L 24.2644454439887 61.4108075221385 L 39.8959235991434 160.104076400857 Z">
    <animateTransform from="0 100 100" to="720 100 100" dur="3.75s" attributeName="transform" type="rotate" repeatCount="indefinite" />
  </path>
  <path stroke="#224488" fill="transparent" d="M 140.92202897537 173.071540592347 L 182.140767233771 83.6611855311493 L 109.843757037094 16.830516730025 L 23.9430091921495 64.9372469812404 L 43.1504375616161 161.499510165239 Z">
    <animateTransform from="0 100 100" to="720 100 100" dur="3.75s" attributeName="transform" type="rotate" repeatCount="indefinite" />
  </path>
  <path stroke="#4488ff" fill="transparent" d="M 143.106131589066 170.342813559213 L 180.220518432808 80.7407574818878 L 106.472875397547 17.7543199670169 L 23.7799385678188 68.4286168298801 L 46.4205360127598 162.733492162002 Z">
    <animateTransform from="0 100 100" to="720 100 100" dur="3.75s" attributeName="transform" type="rotate" repeatCount="indefinite" />
  </path>
  <path stroke="#112244" fill="transparent" d="M 145.140081432843 167.556905999582 L 178.199487961859 77.9454634484627 L 103.189860030424 18.8126408054413 L 23.7719539562982 71.8779891124537 L 49.698616618576 163.807000634061 Z">
    <animateTransform from="0 100 100" to="720 100 100" dur="3.75s" attributeName="transform" type="rotate" repeatCount="indefinite" />
  </path>
  <path stroke="#224488" fill="transparent" d="M 147.022820183398 164.721359549996 L 176.084521303612 75.2786404500042 L 100 20 L 23.9154786963877 75.2786404500042 L 52.9771798166022 164.721359549996 Z">
    <animateTransform from="0 100 100" to="720 100 100" dur="3.75s" attributeName="transform" type="rotate" repeatCount="indefinite" />
  </path>
  <path stroke="#4488ff" fill="transparent" d="M 148.753648508149 161.843708306859 L 173.882567703896 72.7432817551474 L 96.9082895089734 21.3107133960431 L 24.2066501292753 78.6240645731254 L 56.2488441497063 165.478231968825 Z">
    <animateTransform from="0 100 100" to="720 100 100" dur="3.75s" attributeName="transform" type="rotate" repeatCount="indefinite" />
  </path>
  <path stroke="#112244" fill="transparent" d="M 150.332223745589 158.931462334002 L 171.600663769625 70.3420339917055 L 93.919420081092 22.7389066356826 L 24.64133116918 81.9079843011674 L 59.506361234514 166.079612737442 Z">
    <animateTransform from="0 100 100" to="720 100 100" dur="3.75s" attributeName="transform" type="rotate" repeatCount="indefinite" />
  </path>
  <path stroke="#224488" fill="transparent" d="M 151.758556846887 155.992091344471 L 169.245917004162 68.0771950127711 L 91.0377734438399 24.2785301571869 L 25.2151223692537 85.1243629462702 L 62.7426303358572 166.527820539301 Z">
    <animateTransform from="0 100 100" to="720 100 100" dur="3.75s" attributeName="transform" type="rotate" repeatCount="indefinite" />
  </path>
  <path stroke="#4488ff" fill="transparent" d="M 153.033008588991 153.033008588991 L 166.825489314128 65.950712519534 L 88.2674151219827 25.9233744553647 L 25.9233744553647 88.2674151219827 L 65.950712519534 166.825489314128 Z">
    <animateTransform from="0 100 100" to="1080 100 100" dur="3.75s" attributeName="transform" type="rotate" repeatCount="indefinite" />
  </path>
  <path stroke="#112244" fill="transparent" d="M 154.156285070882 150.061554983054 L 164.346580521619 63.9641834395996 L 85.6120887513106 27.6670855702618 L 26.7612012995742 91.3316169374845 L 69.1238443566147 166.9755590696 Z">
    <animateTransform from="0 100 100" to="1080 100 100" dur="3.75s" attributeName="transform" type="rotate" repeatCount="indefinite" />
  </path>
  <path stroke="#224488" fill="transparent" d="M 155.129432506002 147.084983503938 L 161.816411915672 62.1188540580937 L 83.0752111204468 29.5031807711685 L 27.7234933043482 94.3117155597312 L 72.255451153531 166.981266107068 Z">
    <animateTransform from="0 100 100" to="1080 100 100" dur="3.75s" attributeName="transform" type="rotate" repeatCount="indefinite" />
  </path>
  <path stroke="#4488ff" fill="transparent" d="M 155.953831325253 144.110443888326 L 159.242209876556 60.4156208973534 L 80.6598679471135 31.4250644026776 L 28.8049311678485 97.2027381271663 L 75.3391596832286 166.846132684477 Z">
    <animateTransform from="0 100 100" to="1080 100 100" dur="3.75s" attributeName="transform" type="rotate" repeatCount="indefinite" />
  </path>
  <path stroke="#112244" fill="transparent" d="M 156.631189606246 141.144967660473 L 156.631189606246 58.8550323395269 L 78.3688103937536 33.4260438593392 L 30 100 L 78.3688103937536 166.573956140661 Z">
    <animateTransform from="0 100 100" to="1080 100 100" dur="3.75s" attributeName="transform" type="rotate" repeatCount="indefinite" />
  </path>
  <path stroke="#224488" fill="transparent" d="M 157.1635358458 138.195453520098 L 153.990538998051 57.4372909849489 L 76.2044523259223 35.4993456553292 L 31.3030037584503 102.699112333436 L 81.3384690717762 166.168797506188 Z">
    <animateTransform from="0 100 100" to="1080 100 100" dur="3.75s" attributeName="transform" type="rotate" repeatCount="indefinite" />
  </path>
  <path stroke="#4488ff" fill="transparent" d="M 157.553211093901 135.268653118327 L 151.327402678002 56.1622567377126 L 74.1688683153565 37.6381315554881 L 32.7080799730139 105.295988961629 L 84.2424379397263 165.634969626843 Z">
    <animateTransform from="0 100 100" to="1080 100 100" dur="3.75s" attributeName="transform" type="rotate" repeatCount="indefinite" />
  </path>
  <path stroke="#112244" fill="transparent" d="M 157.802860468573 132.371157249173 L 148.648866250114 55.0294506084426 L 72.2637923881454 39.8355147340884 L 34.2092147267361 107.786852581582 L 87.0752661664314 164.977024826714 Z">
    <animateTransform from="0 100 100" to="1080 100 100" dur="3.75s" attributeName="transform" type="rotate" repeatCount="indefinite" />
  </path>
  <path stroke="#224488" fill="transparent" d="M 157.915424072244 129.509382483071 L 145.961940777126 54.0380592228744 L 70.4906175169295 42.0845759277561 L 35.800257861316 110.168240227615 L 89.831759772385 164.199742138684 Z">
    <animateTransform from="0 100 100" to="1080 100 100" dur="3.75s" attributeName="transform" type="rotate" repeatCount="indefinite" />
  </path>
  <path stroke="#4488ff" fill="transparent" d="M 157.894127331349 126.689558268011 L 143.273547527725 53.1869400234751 L 68.8503958545691 44.3783795491092 L 37.4749383742941 112.437008028528 L 92.5069909120628 163.308114130877 Z">
    <animateTransform from="0 100 100" to="1080 100 100" dur="3.75s" attributeName="transform" type="rotate" repeatCount="indefinite" />
  </path>
  <path stroke="#112244" fill="transparent" d="M 157.742470781955 123.917714522818 L 140.590503020637 52.4746271499981 L 67.3438397052532 46.7099897278692 L 39.2268799751452 114.590335240994 L 95.0963065170096 162.307333358321 Z">
    <animateTransform from="0 100 100" to="1440 100 100" dur="3.75s" attributeName="transform" type="rotate" repeatCount="indefinite" />
  </path>
  <path stroke="#224488" fill="transparent" d="M 157.464219325252 121.199669745996 L 137.919504395227 51.8993379835544 L 65.9713232275494 49.0724862464691 L 41.0496167672141 116.625727554236 L 97.595336284757 161.202778469744 Z">
    <animateTransform from="0 100 100" to="1440 100 100" dur="3.75s" attributeName="transform" type="rotate" repeatCount="indefinite" />
  </path>
  <path stroke="#4488ff" fill="transparent" d="M 157.063390977709 118.541019662497 L 135.267115137548 51.4589803375032 L 64.7328848624516 51.4589803375031 L 42.9366090222908 118.541019662497 L 100 160 Z">
    <animateTransform from="0 100 100" to="1440 100 100" dur="3.75s" attributeName="transform" type="rotate" repeatCount="indefinite" />
  </path>
  <path stroke="#112244" fill="transparent" d="M 156.544245141652 115.947126429573 L 132.639751189902 51.1511602772255 L 63.6282304780473 53.8626303107562 L 44.8812590145541 120.334377103303 L 102.306514175845 158.704705879142 Z">
    <animateTransform from="0 100 100" to="1440 100 100" dur="3.75s" attributeName="transform" type="rotate" repeatCount="indefinite" />
  </path>
  <path stroke="#224488" fill="transparent" d="M 155.911270422866 113.423108421715 L 130.043667471167 50.9731905496397 L 62.6567372210144 56.2766569779982 L 46.876926880601 122.004297360993 L 104.511398004351 157.322746689655 Z">
    <animateTransform from="0 100 100" to="1440 100 100" dur="3.75s" attributeName="transform" type="rotate" repeatCount="indefinite" />
  </path>
  <path stroke="#4488ff" fill="transparent" d="M 155.169172022682 110.973830613407 L 127.484944834204 50.9220996021552 L 61.817458063772 58.6943588442427 L 48.9169464723391 123.54961023648 L 106.611478607003 155.860100703715 Z">
    <animateTransform from="0 100 100" to="1440 100 100" dur="3.75s" attributeName="transform" type="rotate" repeatCount="indefinite" />
  </path>
  <path stroke="#112244" fill="transparent" d="M 154.322858732733 108.603895577213 L 124.969477485675 50.9946411696398 L 61.1091270347399 61.1091270347399 L 50.9946411696398 124.969477485675 L 108.603895577213 154.322858732733 Z">
    <animateTransform from="0 100 100" to="1440 100 100" dur="3.75s" attributeName="transform" type="rotate" repeatCount="indefinite" />
  </path>
  <path stroke="#224488" fill="transparent" d="M 153.377429561327 106.317635113359 L 122.502960892637 51.1873044069019 L 60.5301651178319 63.5144599276044 L 53.1033396198372 126.263391730461 L 110.486104808367 152.717208821674 Z">
    <animateTransform from="0 100 100" to="1440 100 100" dur="3.75s" attributeName="transform" type="rotate" repeatCount="indefinite" />
  </path>
  <path stroke="#4488ff" fill="transparent" d="M 152.338160020989 104.119102525712 L 120.090880199167 51.4963245431574 L 60.0786868059984 65.9039774626653 L 55.2363913714102 127.431174647587 L 112.255881602435 151.049420820878 Z">
    <animateTransform from="0 100 100" to="1440 100 100" dur="3.75s" attributeName="transform" type="rotate" repeatCount="indefinite" />
  </path>
  <path stroke="#112244" fill="transparent" d="M 151.210488107337 102.012065557652 L 117.738499175222 51.9176940339727 L 59.7525072923618 68.271435097871 L 57.3871823694945 128.472974442255 L 113.911323055585 149.325830868249 Z">
    <animateTransform from="0 100 100" to="1440 100 100" dur="3.75s" attributeName="transform" type="rotate" repeatCount="indefinite" />
  </path>
  <path stroke="#224488" fill="transparent" d="M 150 100 L 115.450849718747 52.4471741852423 L 59.5491502812527 70.6107373853764 L 59.5491502812526 129.389262614624 L 115.450849718747 147.552825814758 Z">
    <animateTransform from="0 100 100" to="1800 100 100" dur="3.75s" attributeName="transform" type="rotate" repeatCount="indefinite" />
  </path>
  <path stroke="#4488ff" fill="transparent" d="M 148.712415516735 98.0860839817454 L 113.232721930922 53.0803072228847 L 59.4658564002509 72.9159511402944 L 61.7157996195637 130.180830028854 L 116.873206532528 145.736827626221 Z">
    <animateTransform from="0 100 100" to="1800 100 100" dur="3.75s" attributeName="transform" type="rotate" repeatCount="indefinite" />
  </path>
  <path stroke="#112244" fill="transparent" d="M 147.353573352324 96.2731929529274 L 111.088654783156 53.8124287811104 L 59.4995921931806 75.1813181759924 L 63.8807166339985 130.848782295684 L 118.177463037342 143.884277794286 Z">
    <animateTransform from="0 100 100" to="1800 100 100" dur="3.75s" attributeName="transform" type="rotate" repeatCount="indefinite" />
  </path>
  <path stroke="#224488" fill="transparent" d="M 145.929416134165 94.563895367575 L 109.022927393246 54.6386807813506 L 59.6470596728831 77.4012675807658 L 66.0375839385995 131.394534480899 L 119.363012861106 142.00162178941 Z">
    <animateTransform from="0 100 100" to="1800 100 100" dur="3.75s" attributeName="transform" type="rotate" repeatCount="indefinite" />
  </path>
  <path stroke="#4488ff" fill="transparent" d="M 144.445975326781 92.9604490731896 L 107.03955092681 55.5540246732188 L 59.9047064115234 79.5704275117204 L 68.1801948466053 131.819805153395 L 120.42957248828 140.095293588477 Z">
    <animateTransform from="0 100 100" to="1800 100 100" dur="3.75s" attributeName="transform" type="rotate" repeatCount="indefinite" />
  </path>
  <path stroke="#112244" fill="transparent" d="M 142.909356017641 91.4647984117944 L 105.14226113878 56.553255008222 L 60.2687361451527 81.6836364827375 L 70.3024673829338 132.126609787811 L 121.377179315492 138.171700309435 Z">
    <animateTransform from="0 100 100" to="1800 100 100" dur="3.75s" attributeName="transform" type="rotate" repeatCount="indefinite" />
  </path>
  <path stroke="#224488" fill="transparent" d="M 141.325721616901 90.078572036124 L 103.334511568433 57.6310133163421 L 60.7351198682703 83.7359541244837 L 72.3984579459672 132.317253538001 L 122.206189000428 136.237206985049 Z">
    <animateTransform from="0 100 100" to="1800 100 100" dur="3.75s" attributeName="transform" type="rotate" repeatCount="indefinite" />
  </path>
  <path stroke="#4488ff" fill="transparent" d="M 139.701278503713 88.8030814430657 L 101.619467400062 58.7818022550702 L 61.2996073931975 85.7226713955534 L 74.4623745909693 132.394323398831 L 122.917272112059 134.29812150748 Z">
    <animateTransform from="0 100 100" to="1800 100 100" dur="3.75s" attributeName="transform" type="rotate" repeatCount="indefinite" />
  </path>
  <path stroke="#112244" fill="transparent" d="M 138.042260651806 87.6393202250021 L 100 60 L 61.9577393481938 87.6393202250021 L 76.4885899083011 132.360679774998 L 123.511410091699 132.360679774998 Z">
    <animateTransform from="0 100 100" to="1800 100 100" dur="3.75s" attributeName="transform" type="rotate" repeatCount="indefinite" />
  </path>
  <path stroke="#224488" fill="transparent" d="M 136.354914266996 86.5879640382472 L 98.4786821393361 61.279874845672 L 62.7048595874212 89.4816825677284 L 78.4716534704904 132.219447476724 L 123.989890535756 130.431031071629 Z">
    <animateTransform from="0 100 100" to="1800 100 100" dur="3.75s" attributeName="transform" type="rotate" repeatCount="indefinite" />
  </path>
  <path stroke="#4488ff" fill="transparent" d="M 134.645482469173 85.6493712863091 L 97.0577839102058 62.6155999850077 L 63.5361279850871 91.2457988554036 L 80.4063038231519 131.974006163278 L 124.354301812382 128.515223710001 Z">
    <animateTransform from="0 100 100" to="2160 100 100" dur="3.75s" attributeName="transform" type="rotate" repeatCount="indefinite" />
  </path>
  <path stroke="#112244" fill="transparent" d="M 132.920190051159 84.8235845142682 L 95.7392693421534 64.0012684353839 L 64.4465335853829 92.9279758269153 L 82.2874799957354 131.627980256389 L 124.606527025569 126.619190967044 Z">
    <animateTransform from="0 100 100" to="2160 100 100" dur="3.75s" attributeName="transform" type="rotate" repeatCount="indefinite" />
  </path>
  <path stroke="#224488" fill="transparent" d="M 131.185228346593 84.1103325091158 L 94.5247937235919 65.4309080791702 L 65.4309080791702 94.5247937235919 L 84.1103325091158 131.185228346593 L 124.748737341529 124.748737341529 Z">
    <animateTransform from="0 100 100" to="2160 100 100" dur="3.75s" attributeName="transform" type="rotate" repeatCount="indefinite" />
  </path>
  <path stroke="#4488ff" fill="transparent" d="M 129.446740238707 83.5090330994778 L 93.4157016319557 66.898496786391 L 66.4839395777713 96.033112835798 L 85.8702338581118 130.649832116596 L 124.783384693454 122.909525161737 Z">
    <animateTransform from="0 100 100" to="2160 100 100" dur="3.75s" attributeName="transform" type="rotate" repeatCount="indefinite" />
  </path>
  <path stroke="#112244" fill="transparent" d="M 127.710805341508 83.0187966467317 L 92.4130256746831 68.3979775870755 L 67.6001866536733 97.450079388845 L 87.5627884481346 130.026084806617 L 124.713193882001 121.107061570731 Z">
    <animateTransform from="0 100 100" to="2160 100 100" dur="3.75s" attributeName="transform" type="rotate" repeatCount="indefinite" />
  </path>
  <path stroke="#224488" fill="transparent" d="M 125.983425384455 82.6384302181374 L 91.5174859417164 69.9232738608235 L 68.7740926174774 98.7731307575291 L 89.1838419663283 129.318479247578 L 124.541154090023 119.346685915932 Z">
    <animateTransform from="0 100 100" to="2160 100 100" dur="3.75s" attributeName="transform" type="rotate" repeatCount="indefinite" />
  </path>
  <path stroke="#4488ff" fill="transparent" d="M 124.270509831248 82.3664424312258 L 90.7294901687516 71.4683045111454 L 70 100 L 90.7294901687516 128.531695488855 L 124.270509831248 117.633557568774 Z">
    <animateTransform from="0 100 100" to="2160 100 100" dur="3.75s" attributeName="transform" type="rotate" repeatCount="indefinite" />
  </path>
  <path stroke="#112244" fill="transparent" d="M 122.577861762821 82.2010489573423 L 90.0491346090221 73.0269990922286 L 71.2721652080792 101.128719703073 L 92.1960870663791 127.670588048042 L 123.904751353698 115.972644199314 Z">
    <animateTransform from="0 100 100" to="2160 100 100" dur="3.75s" attributeName="transform" type="rotate" repeatCount="indefinite" />
  </path>
  <path stroke="#224488" fill="transparent" d="M 120.911164054001 82.1401786709199 L 89.47620560996 74.5933128559396 L 72.584773322339 102.157625132516 L 93.5802524939626 126.740172810936 L 123.447604519738 114.368710529689 Z">
    <animateTransform from="0 100 100" to="2160 100 100" dur="3.75s" attributeName="transform" type="rotate" repeatCount="indefinite" />
  </path>
  <path stroke="#4488ff" fill="transparent" d="M 119.275965872687 82.1814804297603 L 89.0101818896425 76.1612416870916 L 73.9319530049332 103.085356683268 L 94.8788790470766 125.745613610585 L 122.903020185661 112.826307589295 Z">
    <animateTransform from="0 100 100" to="2160 100 100" dur="3.75s" attributeName="transform" type="rotate" repeatCount="indefinite" />
  </path>
  <path stroke="#112244" fill="transparent" d="M 117.677669529664 82.3223304703363 L 88.6502375065113 77.7248368952908 L 75.3077914851216 103.910861626006 L 96.0891383739942 124.692208514878 L 122.275163104709 111.349762493489 Z">
    <animateTransform from="0 100 100" to="2520 100 100" dur="3.75s" attributeName="transform" type="rotate" repeatCount="indefinite" />
  </path>
  <path stroke="#224488" fill="transparent" d="M 116.121517706407 82.5598404009025 L 88.3952455144473 79.2782198320211 L 76.7063495904233 104.633395147883 L 97.2084868103763 123.585375852679 L 121.568400378346 109.943168766514 Z">
    <animateTransform from="0 100 100" to="2520 100 100" dur="3.75s" attributeName="transform" type="rotate" repeatCount="indefinite" />
  </path>
  <path stroke="#4488ff" fill="transparent" d="M 114.612581087429 82.8908657739993 L 88.2437822938911 80.8155963020329 L 78.1216767910523 105.252520686758 L 98.2346703461235 122.430640008995 L 120.787289481504 108.610377228215 Z">
    <animateTransform from="0 100 100" to="2520 100 100" dur="3.75s" attributeName="transform" type="rotate" repeatCount="indefinite" />
  </path>
  <path stroke="#112244" fill="transparent" d="M 113.155746422834 83.3120152187842 L 88.1941325483335 82.3312707385709 L 79.54782622536 105.768109559633 L 99.1657289151198 121.233617020115 L 119.936565888353 107.354987462897 Z">
    <animateTransform from="0 100 100" to="2520 100 100" dur="3.75s" attributeName="transform" type="rotate" repeatCount="indefinite" />
  </path>
  <path stroke="#224488" fill="transparent" d="M 111.755705045849 83.8196601125011 L 88.2442949541505 83.819660112501 L 80.9788696740969 106.180339887499 L 100 120 L 119.021130325903 106.180339887499 Z">
    <animateTransform from="0 100 100" to="2520 100 100" dur="3.75s" attributeName="transform" type="rotate" repeatCount="indefinite" />
  </path>
  <path stroke="#4488ff" fill="transparent" d="M 110.416941869118 84.4099447693273 L 88.3919884504406 85.275307545986 L 82.4089124514534 106.489694820203 L 100.736121545483 118.735544429514 L 118.046035683506 105.08950843497 Z">
    <animateTransform from="0 100 100" to="2520 100 100" dur="3.75s" attributeName="transform" type="rotate" repeatCount="indefinite" />
  </path>
  <path stroke="#112244" fill="transparent" d="M 109.143724882529 85.0787971238034 L 88.6346591542218 86.6928956019995 L 83.8321081810525 106.696960066389 L 101.373034175237 117.44605334033 L 117.016473606959 104.085293867478 Z">
    <animateTransform from="0 100 100" to="2520 100 100" dur="3.75s" attributeName="transform" type="rotate" repeatCount="indefinite" />
  </path>
  <path stroke="#224488" fill="transparent" d="M 107.940095174326 85.8219398850671 L 88.9694878850897 88.0672592216701 L 85.2426734253424 106.803220734983 L 101.90998270869 116.137362425518 L 115.937760806552 103.170217732762 Z">
    <animateTransform from="0 100 100" to="2520 100 100" dur="3.75s" attributeName="transform" type="rotate" repeatCount="indefinite" />
  </path>
  <path stroke="#4488ff" fill="transparent" d="M 106.809857496093 86.6349021371745 L 89.3933982822018 89.3933982822018 L 86.6349021371745 106.809857496093 L 102.346516975603 114.815325108927 L 114.815325108927 102.346516975603 Z">
    <animateTransform from="0 100 100" to="2520 100 100" dur="3.75s" attributeName="transform" type="rotate" repeatCount="indefinite" />
  </path>
  <path stroke="#112244" fill="transparent" d="M 105.75657139114 87.5130313599051 L 89.9030654952593 90.666489748922 L 88.003179902749 106.718542070583 L 102.682491927722 113.485797605544 L 113.65469128313 101.616139215045 Z">
    <animateTransform from="0 100 100" to="2520 100 100" dur="3.75s" attributeName="transform" type="rotate" repeatCount="indefinite" />
  </path>
  <path stroke="#224488" fill="transparent" d="M 104.783542904564 88.4515058436089 L 90.4949254299996 91.8818993958727 L 89.3419979455739 106.531232058949 L 102.918067048199 112.154624004971 L 112.461466671664 100.980738696598 Z">
    <animateTransform from="0 100 100" to="2880 100 100" dur="3.75s" attributeName="transform" type="rotate" repeatCount="indefinite" />
  </path>
  <path stroke="#4488ff" fill="transparent" d="M 103.893816892122 89.4453474708721 L 91.1651845275916 93.0351930702644 L 90.6459668615963 106.250165121471 L 103.053705060982 110.827621410104 L 111.241326657708 100.44167292729 Z">
    <animateTransform from="0 100 100" to="2880 100 100" dur="3.75s" attributeName="transform" type="rotate" repeatCount="indefinite" />
  </path>
  <path stroke="#112244" fill="transparent" d="M 103.090169943749 90.4894348370485 L 91.9098300562505 94.1221474770753 L 91.9098300562505 105.877852522925 L 103.090169943749 109.510565162952 L 110 100 Z">
    <animateTransform from="0 100 100" to="2880 100 100" dur="3.75s" attributeName="transform" type="rotate" repeatCount="indefinite" />
  </path>
  <path stroke="#224488" fill="transparent" d="M 102.375103936319 91.5785166810306 L 92.7246408923527 95.1387604610785 L 93.1284768547935 105.417072056461 L 103.028524249428 108.209174189322 L 108.743254067106 99.6564766121082 Z">
    <animateTransform from="0 100 100" to="2880 100 100" dur="3.75s" attributeName="transform" type="rotate" repeatCount="indefinite" />
  </path>
  <path stroke="#4488ff" fill="transparent" d="M 101.750840228919 92.7072255970174 L 93.6051987673443 96.0812607646304 L 94.2969552579998 104.870860362476 L 102.870125742738 106.929096493835 L 107.476880002998 99.4115567820412 Z">
    <animateTransform from="0 100 100" to="2880 100 100" dur="3.75s" attributeName="transform" type="rotate" repeatCount="indefinite" />
  </path>
  <path stroke="#112244" fill="transparent" d="M 101.219314512601 93.8700919974798 L 94.546899955795 96.946117240644 L 95.410484316027 104.242504659581 L 102.616623359609 105.675894836407 L 106.206677855968 99.2653912658885 Z">
    <animateTransform from="0 100 100" to="2880 100 100" dur="3.75s" attributeName="transform" type="rotate" repeatCount="indefinite" />
  </path>
  <path stroke="#224488" fill="transparent" d="M 100.782172325201 95.0615582970243 L 95.5449673790582 97.7300475013023 L 96.4644660940673 103.535533905933 L 102.269952498698 104.455032620942 L 104.938441702976 99.2178276747989 Z">
    <animateTransform from="0 100 100" to="2880 100 100" dur="3.75s" attributeName="transform" type="rotate" repeatCount="indefinite" />
  </path>
  <path stroke="#4488ff" fill="transparent" d="M 100.440765240467 96.275993286419 L 96.5944630981559 98.4300259842346 L 97.4544972042515 102.753709410384 L 101.832329655614 103.271860026523 L 103.677944801512 99.2684112924395 Z">
    <animateTransform from="0 100 100" to="2880 100 100" dur="3.75s" attributeName="transform" type="rotate" repeatCount="indefinite" />
  </path>
  <path stroke="#112244" fill="transparent" d="M 100.19614773932 97.5077066656672 L 97.6903011687218 99.0432914190873 L 98.3763798791745 101.901014914 L 101.30624641179 102.131600410885 L 102.430924800994 99.4163865903602 Z">
    <animateTransform from="0 100 100" to="2880 100 100" dur="3.75s" attributeName="transform" type="rotate" repeatCount="indefinite" />
  </path>
  <path stroke="#224488" fill="transparent" d="M 100.049074769699 98.7509637046991 L 98.8272608300969 99.5673536786531 L 99.2261325633627 100.981646163601 L 100.694462791275 101.039337015378 L 101.203069045567 99.6606994376687 Z">
    <animateTransform from="0 100 100" to="2880 100 100" dur="3.75s" attributeName="transform" type="rotate" repeatCount="indefinite" />
  </path>
</svg>
