<?xml version="1.0" encoding="utf-8"?>
<!-- Generated with PSSVG 0.2.10 <https://github.com/StartAutomating/PSSVG> -->
<svg viewBox="0 0 200 200" xmlns:xlink="http://www.w3.org/1999/xlink" xmlns="http://www.w3.org/2000/svg">
  <path stroke="#112244" fill="transparent" d="M 100 200 L 186.602540378444 150 L 186.602540378444 50 L 100 0 L 13.3974596215562 50 L 13.3974596215561 150 Z">
    <animateTransform from="0 100 100" to="360 100 100" dur="3.75s" attributeName="transform" type="rotate" repeatCount="indefinite" />
  </path>
  <path stroke="#224488" fill="transparent" d="M 103.876906806208 198.673867328771 L 187.392529199475 145.979433882105 L 183.515622393267 47.3055665533333 L 96.123093193792 1.32613267122861 L 12.6074708005246 54.0205661178952 L 16.4843776067327 152.694433446667 Z">
    <animateTransform from="0 100 100" to="360 100 100" dur="3.75s" attributeName="transform" type="rotate" repeatCount="indefinite" />
  </path>
  <path stroke="#4488ff" fill="transparent" d="M 107.649761833465 197.19944003898 L 188.002065224111 141.974831938809 L 180.352303390647 44.7753918998288 L 92.3502381665351 2.80055996102003 L 11.9979347758886 58.0251680611912 L 19.6476966093534 155.224608100171 Z">
    <animateTransform from="0 100 100" to="360 100 100" dur="3.75s" attributeName="transform" type="rotate" repeatCount="indefinite" />
  </path>
  <path stroke="#112244" fill="transparent" d="M 111.312974505317 195.582838981912 L 188.433653976831 137.994096176986 L 177.120679471515 42.4112571950741 L 88.6870254946832 4.41716101808838 L 11.5663460231686 62.0059038230143 L 22.8793205284854 157.588742804926 Z">
    <animateTransform from="0 100 100" to="360 100 100" dur="3.75s" attributeName="transform" type="rotate" repeatCount="indefinite" />
  </path>
  <path stroke="#224488" fill="transparent" d="M 114.861274178822 193.830392356538 L 188.690140517234 134.044955206804 L 173.828866338412 40.2145628502655 L 85.1387258211781 6.16960764346189 L 11.3098594827658 65.9550447931964 L 26.1711336615878 159.785437149735 Z">
    <animateTransform from="0 100 100" to="360 100 100" dur="3.75s" attributeName="transform" type="rotate" repeatCount="indefinite" />
  </path>
  <path stroke="#4488ff" fill="transparent" d="M 118.289717689012 191.948620037803 L 188.774699640166 130.134949872171 L 170.484981951154 38.1863298343685 L 81.710282310988 8.05137996219719 L 11.2253003598338 69.8650501278286 L 29.5150180488458 161.813670165631 Z">
    <animateTransform from="0 100 100" to="360 100 100" dur="3.75s" attributeName="transform" type="rotate" repeatCount="indefinite" />
  </path>
  <path stroke="#112244" fill="transparent" d="M 121.593696156671 189.944217636785 L 188.690825475308 126.271419385113 L 167.097129318637 36.3272017483278 L 78.4063038433287 10.055782363215 L 11.3091745246921 73.7285806148871 L 32.9028706813634 163.672798251672 Z">
    <animateTransform from="0 100 100" to="360 100 100" dur="3.75s" attributeName="transform" type="rotate" repeatCount="indefinite" />
  </path>
  <path stroke="#224488" fill="transparent" d="M 124.768941050188 187.824040326395 L 188.442320510741 122.461487988896 L 163.673379460553 34.6374476625003 L 75.231058949812 12.1759596736047 L 11.5576794892587 77.5385120111044 L 36.3266205394467 165.3625523375 Z">
    <animateTransform from="0 100 100" to="360 100 100" dur="3.75s" attributeName="transform" type="rotate" repeatCount="indefinite" />
  </path>
  <path stroke="#4488ff" fill="transparent" d="M 127.811529493745 185.595086466564 L 188.033284066043 118.712052173598 L 160.221754572297 33.1169657070345 L 72.1884705062547 14.4049135334361 L 11.9667159339575 81.2879478264016 L 39.7782454277028 166.883034292965 Z">
    <animateTransform from="0 100 100" to="360 100 100" dur="3.75s" attributeName="transform" type="rotate" repeatCount="indefinite" />
  </path>
  <path stroke="#112244" fill="transparent" d="M 130.717888815628 183.26448106312 L 187.468100241404 115.029768466601 L 156.750211425777 31.7652874034804 L 69.2821111843725 16.7355189368795 L 12.5318997585956 84.970231533399 L 43.2497885742231 168.23471259652 Z">
    <animateTransform from="0 100 100" to="360 100 100" dur="3.75s" attributeName="transform" type="rotate" repeatCount="indefinite" />
  </path>
  <path stroke="#224488" fill="transparent" d="M 133.484800331945 180.839459094738 L 186.751425370208 111.421041819255 L 153.266625038263 30.5815827245169 L 66.5151996680547 19.1605409052624 L 13.2485746297916 88.5789581807454 L 46.7333749617369 169.418417275483 Z">
    <animateTransform from="0 100 100" to="720 100 100" dur="3.75s" attributeName="transform" type="rotate" repeatCount="indefinite" />
  </path>
  <path stroke="#4488ff" fill="transparent" d="M 136.109402362603 178.327348742413 L 185.888175003315 107.892014609719 L 149.778772640711 29.5646658673052 L 63.8905976373968 21.6726512575868 L 14.1118249966854 92.1079853902816 L 50.2212273592886 170.435334132695 Z">
    <animateTransform from="0 100 100" to="720 100 100" dur="3.75s" attributeName="transform" type="rotate" repeatCount="indefinite" />
  </path>
  <path stroke="#112244" fill="transparent" d="M 138.589192477862 175.735554556011 L 184.883510454139 104.44855628065 L 146.294317976277 28.713001724639 L 61.4108075221386 24.2644454439887 L 15.1164895458612 95.5514437193498 L 53.7056820237227 171.286998275361 Z">
    <animateTransform from="0 100 100" to="720 100 100" dur="3.75s" attributeName="transform" type="rotate" repeatCount="indefinite" />
  </path>
  <path stroke="#224488" fill="transparent" d="M 140.92202897537 173.071540592347 L 183.742824934323 101.0962536291 L 142.820795958953 28.0247130367534 L 59.07797102463 26.9284594076532 L 16.2571750656769 98.9037463708999 L 57.1792040410469 171.975286963247 Z">
    <animateTransform from="0 100 100" to="720 100 100" dur="3.75s" attributeName="transform" type="rotate" repeatCount="indefinite" />
  </path>
  <path stroke="#4488ff" fill="transparent" d="M 143.106131589066 170.342813559213 L 182.471729310483 97.8404017646005 L 139.365597721418 27.4975882053879 L 56.8938684109342 29.6571864407874 L 17.5282706895165 102.1595982354 L 60.6344022785823 172.502411794612 Z">
    <animateTransform from="0 100 100" to="720 100 100" dur="3.75s" attributeName="transform" type="rotate" repeatCount="indefinite" />
  </path>
  <path stroke="#112244" fill="transparent" d="M 145.140081432843 167.556905999582 L 181.076037513137 94.6859957500509 L 135.935956080294 27.1290897504691 L 54.8599185671573 32.4430940004182 L 18.9239624868634 105.314004249949 L 64.0640439197062 172.870910249531 Z">
    <animateTransform from="0 100 100" to="720 100 100" dur="3.75s" attributeName="transform" type="rotate" repeatCount="indefinite" />
  </path>
  <path stroke="#224488" fill="transparent" d="M 147.022820183398 164.721359549996 L 179.561751629462 91.6377229385878 L 132.538931446064 26.9163633885919 L 52.9771798166022 35.2786404500042 L 20.4382483705382 108.362277061412 L 67.461068553936 173.083636611408 Z">
    <animateTransform from="0 100 100" to="720 100 100" dur="3.75s" attributeName="transform" type="rotate" repeatCount="indefinite" />
  </path>
  <path stroke="#4488ff" fill="transparent" d="M 148.753648508149 161.843708306859 L 177.935046712049 88.6999560181947 L 129.1813982039 26.856247711336 L 51.2463514918506 38.1562916931413 L 22.064953287951 111.300043981805 L 70.8186017961003 173.143752288664 Z">
    <animateTransform from="0 100 100" to="720 100 100" dur="3.75s" attributeName="transform" type="rotate" repeatCount="indefinite" />
  </path>
  <path stroke="#112244" fill="transparent" d="M 150.332223745589 158.931462334002 L 176.202255336207 85.8767467743585 L 125.870031590617 26.9452844403562 L 49.6677762544107 41.0685376659976 L 23.7977446637935 114.123253225641 L 74.1299684093827 173.054715559644 Z">
    <animateTransform from="0 100 100" to="720 100 100" dur="3.75s" attributeName="transform" type="rotate" repeatCount="indefinite" />
  </path>
  <path stroke="#224488" fill="transparent" d="M 151.758556846887 155.992091344471 L 174.369851938774 83.1718205796106 L 122.611295091887 27.1797292351395 L 48.2414431531132 44.0079086555289 L 25.6301480612259 116.828179420389 L 77.3887049081127 172.820270764861 Z">
    <animateTransform from="0 100 100" to="720 100 100" dur="3.75s" attributeName="transform" type="rotate" repeatCount="indefinite" />
  </path>
  <path stroke="#4488ff" fill="transparent" d="M 153.033008588991 153.033008588991 L 172.44443697168 80.5885716173109 L 119.411428382689 27.5555630283199 L 46.9669914110089 46.9669914110089 L 27.5555630283199 119.411428382689 L 80.5885716173109 172.44443697168 Z">
    <animateTransform from="0 100 100" to="1080 100 100" dur="3.75s" attributeName="transform" type="rotate" repeatCount="indefinite" />
  </path>
  <path stroke="#112244" fill="transparent" d="M 154.156285070882 150.061554983054 L 170.432720903718 78.1300588455516 L 116.276435832836 28.0685038624972 L 45.8437149291182 49.9384450169455 L 29.5672790962825 121.869941154448 L 83.7235641671642 171.931496137503 Z">
    <animateTransform from="0 100 100" to="1080 100 100" dur="3.75s" attributeName="transform" type="rotate" repeatCount="indefinite" />
  </path>
  <path stroke="#224488" fill="transparent" d="M 155.129432506002 147.084983503938 L 168.341508104183 75.7990027055516 L 113.212075598181 28.7140192016133 L 44.8705674939977 52.9150164960617 L 31.6584918958171 124.200997294448 L 86.7879244018193 171.285980798387 Z">
    <animateTransform from="0 100 100" to="1080 100 100" dur="3.75s" attributeName="transform" type="rotate" repeatCount="indefinite" />
  </path>
  <path stroke="#4488ff" fill="transparent" d="M 155.953831325253 144.110443888326 L 166.177680642125 73.5977825774242 L 110.223849316872 29.4873386890985 L 44.0461686747469 55.8895561116743 L 33.8223193578754 126.402217422576 L 89.7761506831285 170.512661310901 Z">
    <animateTransform from="0 100 100" to="1080 100 100" dur="3.75s" attributeName="transform" type="rotate" repeatCount="indefinite" />
  </path>
  <path stroke="#112244" fill="transparent" d="M 156.631189606246 141.144967660473 L 163.948182034982 71.528434984694 L 107.316992428736 30.3834673242209 L 43.3688103937537 58.8550323395269 L 36.0518179650179 128.471565015306 L 92.6830075712643 169.616532675779 Z">
    <animateTransform from="0 100 100" to="1080 100 100" dur="3.75s" attributeName="transform" type="rotate" repeatCount="indefinite" />
  </path>
  <path stroke="#224488" fill="transparent" d="M 157.1635358458 138.195453520098 L 161.660000980372 69.5926525474437 L 104.496465134572 31.397199027346 L 42.8364641542 61.8045464799023 L 38.3399990196277 130.407347452556 L 95.5035348654276 168.602800972654 Z">
    <animateTransform from="0 100 100" to="1080 100 100" dur="3.75s" attributeName="transform" type="rotate" repeatCount="indefinite" />
  </path>
  <path stroke="#4488ff" fill="transparent" d="M 157.553211093901 135.268653118327 L 159.320155104683 67.7917836824764 L 101.766944010781 32.5231305641499 L 42.4467889060988 64.7313468816734 L 40.6798448953173 132.208216317524 L 98.2330559892185 167.47686943585 Z">
    <animateTransform from="0 100 100" to="1080 100 100" dur="3.75s" attributeName="transform" type="rotate" repeatCount="indefinite" />
  </path>
  <path stroke="#112244" fill="transparent" d="M 157.802860468573 132.371157249173 L 156.935674761971 66.1268330473953 L 99.1328142933985 33.755675798222 L 42.1971395314272 67.6288427508267 L 43.0643252380287 133.873166952605 L 100.867185706602 166.244324201778 Z">
    <animateTransform from="0 100 100" to="1080 100 100" dur="3.75s" attributeName="transform" type="rotate" repeatCount="indefinite" />
  </path>
  <path stroke="#224488" fill="transparent" d="M 157.915424072244 129.509382483071 L 154.513586916453 64.5984627240232 L 96.5981628442086 35.0890802409527 L 42.0845759277561 70.4906175169294 L 45.4864130835474 135.401537275977 L 103.401837155791 164.910919759047 Z">
    <animateTransform from="0 100 100" to="1080 100 100" dur="3.75s" attributeName="transform" type="rotate" repeatCount="indefinite" />
  </path>
  <path stroke="#4488ff" fill="transparent" d="M 157.894127331349 126.689558268011 L 152.060899141557 63.2069941351263 L 94.1667718102081 36.5174358671153 L 42.1058726686511 73.310441731989 L 47.939100858443 136.793005864874 L 105.833228189792 163.482564132885 Z">
    <animateTransform from="0 100 100" to="1080 100 100" dur="3.75s" attributeName="transform" type="rotate" repeatCount="indefinite" />
  </path>
  <path stroke="#112244" fill="transparent" d="M 157.742470781955 123.917714522818 L 149.584583768202 61.9524106869549 L 91.8421129862468 38.0346961641369 L 42.2575292180446 76.0822854771819 L 50.4154162317978 138.047589313045 L 108.157887013753 161.965303835863 Z">
    <animateTransform from="0 100 100" to="1440 100 100" dur="3.75s" attributeName="transform" type="rotate" repeatCount="indefinite" />
  </path>
  <path stroke="#224488" fill="transparent" d="M 157.464219325252 121.199669745996 L 147.091562214499 60.8343611286892 L 89.6273428892472 39.6346913826927 L 42.5357806747479 78.8003302540036 L 52.9084377855006 139.165638871311 L 110.372657110753 160.365308617307 Z">
    <animateTransform from="0 100 100" to="1440 100 100" dur="3.75s" attributeName="transform" type="rotate" repeatCount="indefinite" />
  </path>
  <path stroke="#4488ff" fill="transparent" d="M 157.063390977709 118.541019662497 L 144.588689528644 59.8521636184685 L 87.5252985509345 41.3111439559716 L 42.9366090222908 81.4589803375031 L 55.4113104713563 140.147836381531 L 112.474701449065 158.688856044028 Z">
    <animateTransform from="0 100 100" to="1440 100 100" dur="3.75s" attributeName="transform" type="rotate" repeatCount="indefinite" />
  </path>
  <path stroke="#112244" fill="transparent" d="M 156.544245141652 115.947126429573 L 142.082739176198 59.0048104843013 L 85.5384940345467 43.0576840547282 L 43.4557548583482 84.0528735704269 L 57.9172608238016 140.995189515699 L 114.461505965453 156.942315945272 Z">
    <animateTransform from="0 100 100" to="1440 100 100" dur="3.75s" attributeName="transform" type="rotate" repeatCount="indefinite" />
  </path>
  <path stroke="#224488" fill="transparent" d="M 155.911270422866 113.423108421715 L 139.580388102391 58.2909736667934 L 83.6691176795245 44.8678652450789 L 44.0887295771336 86.5768915782855 L 60.4196118976091 141.709026333207 L 116.330882320476 155.132134754921 Z">
    <animateTransform from="0 100 100" to="1440 100 100" dur="3.75s" attributeName="transform" type="rotate" repeatCount="indefinite" />
  </path>
  <path stroke="#4488ff" fill="transparent" d="M 155.169172022682 110.973830613407 L 137.088202099379 57.7090108293075 L 81.9190300766972 46.7351802159003 L 44.8308279773183 89.0261693865927 L 62.9117979006211 142.290989170693 L 118.080969923303 153.2648197841 Z">
    <animateTransform from="0 100 100" to="1440 100 100" dur="3.75s" attributeName="transform" type="rotate" repeatCount="indefinite" />
  </path>
  <path stroke="#112244" fill="transparent" d="M 154.322858732733 108.603895577213 L 134.612621507741 57.2569721198666 L 80.2897627750085 48.6530765426539 L 45.6771412672674 91.3961044227873 L 65.3873784922589 142.743027880133 L 119.710237224992 151.346923457346 Z">
    <animateTransform from="0 100 100" to="1440 100 100" dur="3.75s" attributeName="transform" type="rotate" repeatCount="indefinite" />
  </path>
  <path stroke="#224488" fill="transparent" d="M 153.377429561327 106.317635113359 L 132.159947280673 56.9326075678555 L 78.7825177193456 50.6149724544967 L 46.6225704386727 93.6823648866412 L 67.8400527193271 143.067392432144 L 121.217482280654 149.385027545503 Z">
    <animateTransform from="0 100 100" to="1440 100 100" dur="3.75s" attributeName="transform" type="rotate" repeatCount="indefinite" />
  </path>
  <path stroke="#4488ff" fill="transparent" d="M 152.338160020989 104.119102525712 L 129.736327438554 56.7333750973442 L 77.3981674175645 52.6142725716324 L 47.6618399790108 95.8808974742881 L 70.2636725614463 143.266624902656 L 122.601832582435 147.385727428368 Z">
    <animateTransform from="0 100 100" to="1440 100 100" dur="3.75s" attributeName="transform" type="rotate" repeatCount="indefinite" />
  </path>
  <path stroke="#112244" fill="transparent" d="M 151.210488107337 102.012065557652 L 127.347743940675 56.6564491376714 L 76.1372558333381 54.6443835800191 L 48.7895118926629 97.9879344423477 L 72.6522560593249 143.343550862329 L 123.862744166662 145.355616419981 Z">
    <animateTransform from="0 100 100" to="1440 100 100" dur="3.75s" attributeName="transform" type="rotate" repeatCount="indefinite" />
  </path>
  <path stroke="#224488" fill="transparent" d="M 150 100 L 125 56.698729810778 L 75 56.698729810778 L 50 100 L 75 143.301270189222 L 125 143.301270189222 Z">
    <animateTransform from="0 100 100" to="1800 100 100" dur="3.75s" attributeName="transform" type="rotate" repeatCount="indefinite" />
  </path>
  <path stroke="#4488ff" fill="transparent" d="M 148.712415516735 98.0860839817454 L 122.698707865849 56.8568526736767 L 73.9862923491139 58.7707686919313 L 51.2875844832648 101.913916018255 L 77.3012921341508 143.143147326323 L 126.013707650886 141.229231308069 Z">
    <animateTransform from="0 100 100" to="1800 100 100" dur="3.75s" attributeName="transform" type="rotate" repeatCount="indefinite" />
  </path>
  <path stroke="#112244" fill="transparent" d="M 147.353573352324 96.2731929529274 L 120.449277098394 57.1271989933816 L 73.0957037460704 60.8540060404542 L 52.6464266476764 103.726807047073 L 79.550722901606 142.872801006618 L 126.90429625393 139.145993959546 Z">
    <animateTransform from="0 100 100" to="1800 100 100" dur="3.75s" attributeName="transform" type="rotate" repeatCount="indefinite" />
  </path>
  <path stroke="#224488" fill="transparent" d="M 145.929416134165 94.563895367575 L 118.256903357772 57.5059065306135 L 72.327487223607 62.9420111630384 L 54.0705838658347 105.436104632425 L 81.7430966422277 142.494093469387 L 127.672512776393 137.057988836962 Z">
    <animateTransform from="0 100 100" to="1800 100 100" dur="3.75s" attributeName="transform" type="rotate" repeatCount="indefinite" />
  </path>
  <path stroke="#4488ff" fill="transparent" d="M 144.445975326781 92.9604490731896 L 116.126557729539 57.9888808076259 L 71.6805824027573 65.0284317344363 L 55.5540246732188 107.03955092681 L 83.8734422704615 142.011119192374 L 128.319417597243 134.971568265564 Z">
    <animateTransform from="0 100 100" to="1800 100 100" dur="3.75s" attributeName="transform" type="rotate" repeatCount="indefinite" />
  </path>
  <path stroke="#112244" fill="transparent" d="M 142.909356017641 91.4647984117944 L 114.062976607013 58.5718068345891 L 71.153620589372 67.1070084227947 L 57.0906439823587 108.535201588206 L 85.9370233929867 141.428193165411 L 128.846379410628 132.892991577205 Z">
    <animateTransform from="0 100 100" to="1800 100 100" dur="3.75s" attributeName="transform" type="rotate" repeatCount="indefinite" />
  </path>
  <path stroke="#224488" fill="transparent" d="M 141.325721616901 90.078572036124 L 112.070652149917 59.2501612681018 L 70.7449305330154 69.1715892319778 L 58.6742783830987 109.921427963876 L 87.9293478500833 140.749838731898 L 129.255069466985 130.828410768022 Z">
    <animateTransform from="0 100 100" to="1800 100 100" dur="3.75s" attributeName="transform" type="rotate" repeatCount="indefinite" />
  </path>
  <path stroke="#4488ff" fill="transparent" d="M 139.701278503713 88.8030814430657 L 110.153823337446 60.0192249745964 L 70.452544833733 71.2161435315307 L 60.2987214962871 111.196918556934 L 89.846176662554 139.980775025404 L 129.547455166267 128.783856468469 Z">
    <animateTransform from="0 100 100" to="1800 100 100" dur="3.75s" attributeName="transform" type="rotate" repeatCount="indefinite" />
  </path>
  <path stroke="#112244" fill="transparent" d="M 138.042260651806 87.6393202250021 L 108.31646763271 60.8740959706478 L 70.2742069809042 73.2347757456457 L 61.9577393481938 112.360679774998 L 91.6835323672896 139.125904029352 L 129.725793019096 126.765224254354 Z">
    <animateTransform from="0 100 100" to="1800 100 100" dur="3.75s" attributeName="transform" type="rotate" repeatCount="indefinite" />
  </path>
  <path stroke="#224488" fill="transparent" d="M 136.354914266996 86.5879640382472 L 106.56229327415 61.8097027114995 L 70.2073790071534 75.2217386732524 L 63.6450857330037 113.412035961753 L 93.4377067258503 138.190297288501 L 129.792620992847 124.778261326748 Z">
    <animateTransform from="0 100 100" to="1800 100 100" dur="3.75s" attributeName="transform" type="rotate" repeatCount="indefinite" />
  </path>
  <path stroke="#4488ff" fill="transparent" d="M 134.645482469173 85.6493712863091 L 104.894732208252 62.8208176984821 L 70.2492497390787 77.171446412173 L 65.3545175308267 114.350628713691 L 95.105267791748 137.179182301518 L 129.750750260921 122.828553587827 Z">
    <animateTransform from="0 100 100" to="2160 100 100" dur="3.75s" attributeName="transform" type="rotate" repeatCount="indefinite" />
  </path>
  <path stroke="#112244" fill="transparent" d="M 132.920190051159 84.8235845142682 L 103.316933676548 63.9020713754185 L 70.3967436253891 79.0784868611503 L 67.0798099488408 115.176415485732 L 96.6830663234517 136.097928624581 L 129.603256374611 120.92151313885 Z">
    <animateTransform from="0 100 100" to="2160 100 100" dur="3.75s" attributeName="transform" type="rotate" repeatCount="indefinite" />
  </path>
  <path stroke="#224488" fill="transparent" d="M 131.185228346593 84.1103325091158 L 101.831758468503 65.0479662835899 L 70.6465301219102 80.9376337744741 L 68.8147716534071 115.889667490884 L 98.168241531497 134.95203371641 L 129.35346987809 119.062366225526 Z">
    <animateTransform from="0 100 100" to="2160 100 100" dur="3.75s" attributeName="transform" type="rotate" repeatCount="indefinite" />
  </path>
  <path stroke="#4488ff" fill="transparent" d="M 129.446740238707 83.5090330994778 L 100.441773850533 66.2528914443773 L 70.995033611826 82.7438583448995 L 70.5532597612931 116.490966900522 L 99.5582261494671 133.747108555623 L 129.004966388174 117.256141655101 Z">
    <animateTransform from="0 100 100" to="2160 100 100" dur="3.75s" attributeName="transform" type="rotate" repeatCount="indefinite" />
  </path>
  <path stroke="#112244" fill="transparent" d="M 127.710805341508 83.0187966467317 L 99.1492491799941 67.5111369382944 L 71.4384438384861 84.4923402915627 L 72.289194658492 116.981203353268 L 100.850750820006 132.488863061706 L 128.561556161514 115.507659708437 Z">
    <animateTransform from="0 100 100" to="2160 100 100" dur="3.75s" attributeName="transform" type="rotate" repeatCount="indefinite" />
  </path>
  <path stroke="#224488" fill="transparent" d="M 125.983425384455 82.6384302181374 L 97.956152211558 68.8169086487936 L 71.9727268271035 86.1784784306562 L 74.0165746155454 117.361569781863 L 102.043847788442 131.183091351206 L 128.027273172897 113.821521569344 Z">
    <animateTransform from="0 100 100" to="2160 100 100" dur="3.75s" attributeName="transform" type="rotate" repeatCount="indefinite" />
  </path>
  <path stroke="#4488ff" fill="transparent" d="M 124.270509831248 82.3664424312258 L 96.8641461019704 70.1643431389518 L 72.593636270722 87.797900707726 L 75.7294901687516 117.633557568774 L 103.13585389803 129.835656861048 L 127.406363729278 112.202099292274 Z">
    <animateTransform from="0 100 100" to="2160 100 100" dur="3.75s" attributeName="transform" type="rotate" repeatCount="indefinite" />
  </path>
  <path stroke="#112244" fill="transparent" d="M 122.577861762821 82.2010489573423 L 95.8745871177536 71.5475226289345 L 73.2967253549322 89.3464736715922 L 77.4221382371786 117.798951042658 L 104.125412882246 128.452477371066 L 126.703274645068 110.653526328408 Z">
    <animateTransform from="0 100 100" to="2160 100 100" dur="3.75s" attributeName="transform" type="rotate" repeatCount="indefinite" />
  </path>
  <path stroke="#224488" fill="transparent" d="M 120.911164054001 82.1401786709199 L 94.988523048966 72.9604900419912 L 74.0773589949651 90.8203113710713 L 79.0888359459992 117.85982132908 L 105.011476951034 127.039509958009 L 125.922641005035 109.179688628929 Z">
    <animateTransform from="0 100 100" to="2160 100 100" dur="3.75s" attributeName="transform" type="rotate" repeatCount="indefinite" />
  </path>
  <path stroke="#4488ff" fill="transparent" d="M 119.275965872687 82.1814804297603 L 94.2066923306856 74.3972640866515 L 74.9307264579988 92.2157836568913 L 80.7240341273132 117.81851957024 L 105.793307669314 125.602735913348 L 125.069273542001 107.784216343109 Z">
    <animateTransform from="0 100 100" to="2160 100 100" dur="3.75s" attributeName="transform" type="rotate" repeatCount="indefinite" />
  </path>
  <path stroke="#112244" fill="transparent" d="M 117.677669529664 82.3223304703363 L 93.529523872437 75.8518543427733 L 75.8518543427733 93.529523872437 L 82.3223304703363 117.677669529664 L 106.470476127563 124.148145657227 L 124.148145657227 106.470476127563 Z">
    <animateTransform from="0 100 100" to="2520 100 100" dur="3.75s" attributeName="transform" type="rotate" repeatCount="indefinite" />
  </path>
  <path stroke="#224488" fill="transparent" d="M 116.121517706407 82.5598404009025 L 92.9571375943302 77.3182763191418 L 76.8356198879228 94.7584359182393 L 83.8784822935926 117.440159599098 L 107.04286240567 122.681723680858 L 123.164380112077 105.241564081761 Z">
    <animateTransform from="0 100 100" to="2520 100 100" dur="3.75s" attributeName="transform" type="rotate" repeatCount="indefinite" />
  </path>
  <path stroke="#4488ff" fill="transparent" d="M 114.612581087429 82.8908657739993 L 92.4893456672402 78.790566450426 L 77.876764579811 95.8997006764267 L 85.3874189125709 117.109134226001 L 107.51065433276 121.209433549574 L 122.123235420189 104.100299323573 Z">
    <animateTransform from="0 100 100" to="2520 100 100" dur="3.75s" attributeName="transform" type="rotate" repeatCount="indefinite" />
  </path>
  <path stroke="#112244" fill="transparent" d="M 113.155746422834 83.3120152187842 L 92.125654452916 80.2627970014716 L 78.969908030082 96.9507817826874 L 86.844253577166 116.687984781216 L 107.874345547084 119.737202998528 L 121.030091969918 103.049218217313 Z">
    <animateTransform from="0 100 100" to="2520 100 100" dur="3.75s" attributeName="transform" type="rotate" repeatCount="indefinite" />
  </path>
  <path stroke="#224488" fill="transparent" d="M 111.755705045849 83.8196601125011 L 91.865267138484 81.729090847148 L 80.1095620926345 97.9094307346469 L 88.2442949541505 116.180339887499 L 108.134732861516 118.270909152852 L 119.890437907365 102.090569265353 Z">
    <animateTransform from="0 100 100" to="2520 100 100" dur="3.75s" attributeName="transform" type="rotate" repeatCount="indefinite" />
  </path>
  <path stroke="#4488ff" fill="transparent" d="M 110.416941869118 84.4099447693273 L 91.7070870583937 83.1836360962621 L 81.2901451892762 98.7736913269348 L 89.5830581308825 115.590055230673 L 108.292912941606 116.816363903738 L 118.709854810724 101.226308673065 Z">
    <animateTransform from="0 100 100" to="2520 100 100" dur="3.75s" attributeName="transform" type="rotate" repeatCount="indefinite" />
  </path>
  <path stroke="#112244" fill="transparent" d="M 109.143724882529 85.0787971238034 L 91.6497216954569 84.6207005284156 L 82.5059968129277 99.5419034046122 L 90.8562751174709 114.921202876197 L 108.350278304543 115.379299471584 L 117.494003187072 100.458096595388 Z">
    <animateTransform from="0 100 100" to="2520 100 100" dur="3.75s" attributeName="transform" type="rotate" repeatCount="indefinite" />
  </path>
  <path stroke="#224488" fill="transparent" d="M 107.940095174326 85.8219398850671 L 91.6914873512479 86.0346458131014 L 83.7513921769224 100.212705928034 L 92.0599048256745 114.178060114933 L 108.308512648752 113.965354186899 L 116.248607823078 99.7872940719657 Z">
    <animateTransform from="0 100 100" to="2520 100 100" dur="3.75s" attributeName="transform" type="rotate" repeatCount="indefinite" />
  </path>
  <path stroke="#4488ff" fill="transparent" d="M 106.809857496093 86.6349021371745 L 91.8304144747746 87.4199414808186 L 85.0205569786814 100.785039343644 L 93.1901425039068 113.365097862826 L 108.169585525225 112.580058519181 L 114.979443021319 99.2149606563558 Z">
    <animateTransform from="0 100 100" to="2520 100 100" dur="3.75s" attributeName="transform" type="rotate" repeatCount="indefinite" />
  </path>
  <path stroke="#112244" fill="transparent" d="M 105.75657139114 87.5130313599051 L 92.064253636988 88.7711786165269 L 86.3076822458484 101.258147256622 L 94.2434286088604 112.486968640095 L 107.935746363012 111.228821383473 L 113.692317754152 98.7418527433782 Z">
    <animateTransform from="0 100 100" to="2520 100 100" dur="3.75s" attributeName="transform" type="rotate" repeatCount="indefinite" />
  </path>
  <path stroke="#224488" fill="transparent" d="M 104.783542904564 88.4515058436089 L 92.390482137391 90.0830832463596 L 87.6069392328274 101.631577402751 L 95.2164570954364 111.548494156391 L 107.609517862609 109.91691675364 L 112.393060767173 98.3684225972494 Z">
    <animateTransform from="0 100 100" to="2880 100 100" dur="3.75s" attributeName="transform" type="rotate" repeatCount="indefinite" />
  </path>
  <path stroke="#4488ff" fill="transparent" d="M 103.893816892122 89.4453474708721 L 92.8063112277184 91.3505293891736 L 88.9124943355966 101.905181918302 L 96.1061831078782 110.554652529128 L 107.193688772282 108.649470610826 L 111.087505664403 98.0948180816985 Z">
    <animateTransform from="0 100 100" to="2880 100 100" dur="3.75s" attributeName="transform" type="rotate" repeatCount="indefinite" />
  </path>
  <path stroke="#112244" fill="transparent" d="M 103.090169943749 90.4894348370485 L 93.3086939364114 92.5685517452261 L 90.2185239926619 102.079116908178 L 96.9098300562505 109.510565162952 L 106.691306063589 107.431448254774 L 109.781476007338 97.9208830918224 Z">
    <animateTransform from="0 100 100" to="2880 100 100" dur="3.75s" attributeName="transform" type="rotate" repeatCount="indefinite" />
  </path>
  <path stroke="#224488" fill="transparent" d="M 102.375103936319 91.5785166810306 L 93.8943334763853 93.7323579950343 L 91.5192295400659 102.153841314004 L 97.6248960636806 108.421483318969 L 106.105666523615 106.267642004966 L 108.480770459934 97.8461586859963 Z">
    <animateTransform from="0 100 100" to="2880 100 100" dur="3.75s" attributeName="transform" type="rotate" repeatCount="indefinite" />
  </path>
  <path stroke="#4488ff" fill="transparent" d="M 101.750840228919 92.7072255970174 L 94.5596922174078 94.8373406822968 L 92.8088519884886 102.130115085279 L 98.2491597710807 107.292774402983 L 105.440307782592 105.162659317703 L 107.191148011511 97.8698849147206 Z">
    <animateTransform from="0 100 100" to="2880 100 100" dur="3.75s" attributeName="transform" type="rotate" repeatCount="indefinite" />
  </path>
  <path stroke="#112244" fill="transparent" d="M 101.219314512601 93.8700919974798 L 95.3010012032564 95.8790886556246 L 94.0816866906556 102.008996658145 L 98.7806854873992 106.12990800252 L 104.698998796744 104.120911344375 L 105.918313309344 97.9910033418552 Z">
    <animateTransform from="0 100 100" to="2880 100 100" dur="3.75s" attributeName="transform" type="rotate" repeatCount="indefinite" />
  </path>
  <path stroke="#224488" fill="transparent" d="M 100.782172325201 95.0615582970243 L 96.1142701927151 96.8533980447508 L 95.332097867514 101.791839747726 L 99.2178276747988 104.938441702976 L 103.885729807285 103.146601955249 L 104.667902132486 98.2081602522735 Z">
    <animateTransform from="0 100 100" to="2880 100 100" dur="3.75s" attributeName="transform" type="rotate" repeatCount="indefinite" />
  </path>
  <path stroke="#4488ff" fill="transparent" d="M 100.440765240467 96.275993286419 L 96.9952982024085 97.75628274786 L 96.5545329619416 101.480289461441 L 99.5592347595331 103.724006713581 L 103.004701797591 102.24371725214 L 103.445467038058 98.519710538559 Z">
    <animateTransform from="0 100 100" to="2880 100 100" dur="3.75s" attributeName="transform" type="rotate" repeatCount="indefinite" />
  </path>
  <path stroke="#112244" fill="transparent" d="M 100.19614773932 97.5077066656672 L 97.939684528445 98.5839844076879 L 97.7435367891253 101.076277742021 L 99.8038522606804 102.492293334333 L 102.060315471555 101.416015592312 L 102.256463210875 98.9237222579793 Z">
    <animateTransform from="0 100 100" to="2880 100 100" dur="3.75s" attributeName="transform" type="rotate" repeatCount="indefinite" />
  </path>
  <path stroke="#224488" fill="transparent" d="M 100.049074769699 98.7509637046991 L 98.94284022287 99.3329818551055 L 98.8937654531712 100.582018150406 L 99.9509252303012 101.249036295301 L 101.05715977713 100.667018144895 L 101.106234546829 99.4179818495936 Z">
    <animateTransform from="0 100 100" to="2880 100 100" dur="3.75s" attributeName="transform" type="rotate" repeatCount="indefinite" />
  </path>
</svg>
