<svg viewBox='0 0 500 500' xmlns:xlink="http://www.w3.org/1999/xlink" xmlns="http://www.w3.org/2000/svg"><path d="M 250 250 L 250 250 L 249.917124883801 250.182021194137 L 249.737365697699 249.698299447706 L 250.57511307341 249.828988442518 L 249.889767767452 250.792369140557 L 249.155672074498 249.464173205021 L 251.005033648051 249.344326783919 L 250.210315824769 251.384112442633 L 248.460755725462 249.563276903172 L 251.164700730825 248.627603480179 L 250.85155858313 251.809654104932 L 247.800173702752 250.027645287743 L 250.966975445713 247.80342118571 L 251.731630855329 251.939446978103 L 247.326379274709 250.831716428416 L 250.375999700693 247.023655896057 L 252.723182341743 251.680558815876 L 247.175973942734 251.89337709606 L 249.414506205298 246.447930600852 L 253.668450227566 250.991197723902 L 247.450304041005 253.082052971103 L 248.164113780066 246.222497943421 L 254.398610432847 249.889427580049 L 248.199681132549 254.233066497883 L 246.758402521019 246.459937036681 L 254.755282581476 248.454915028125 L 249.413146798658 255.166778814704 L 245.369356056554 247.22202651758 L 254.611782546719 246.82329388489 L 251.015133742057 255.710473140269 L 244.188501033228 248.507860677011 L 253.891686440002 245.173533730284 L 252.869652582976 255.720585114568 L 243.404689480572 250.248755205622 L 252.582497849548 243.709474993526 L 254.791829741501 255.10278039195 L 243.180892204038 252.310793990612 L 250.742676689899 242.637362474338 L 256.565817970666 253.827536332432 L 243.632553844406 254.505067086694 L 248.500949483314 242.14170199417 L 257.9673802099 251.939291775595 L 244.809979250041 256.604822829948 L 246.047613198655 242.362026540204 L 258.788885218133 249.557850000018 L 246.686879025838 258.367988372994 L 243.618389586522 243.373156971031 L 258.864111037393 246.871496281484 L 249.156628513113 259.562882647774 L 241.472199204239 245.171272052827 L 258.090169943749 244.122147477075 L 252.037041801247 259.994521534319 L 239.86492052302 247.667584086126 L 256.444061155563 241.583701774333 L 255.083602467386 259.528745245498 L 239.021705987289 250.690695714822 L 253.991813041588 239.535515844486 L 258.010209655707 258.111506720186 L 239.110687251215 253.997857908824 L 250.88885630523 238.233524976925 L 260.515680160526 255.781044089221 L 240.220882784575 257.294440793302 L 247.371111836967 237.881875267754 L 262.313578356959 252.671289585018 L 242.346816216864 260.260057406347 L 243.737202236678 238.60801315943 L 263.16249748344 249.005686167031 L 245.381784829461 262.579033692562 L 240.323114789954 240.443960410736 L 262.893739405901 245.081516073757 L 249.12093272659 263.972374197996 L 237.471464584624 243.316004163252 L 261.433461740529 241.245803713198 L 253.274353109861 264.228092342684 L 235.498145224713 247.044292288387 L 258.816778784387 237.864745084376 L 257.489455591534 263.226793070977 L 234.659542419195 251.352908426881 L 255.191984894559 235.289347640071 L 261.380882593229 260.959722231842 L 235.123576225788 255.889992842955 L 250.813957954512 233.820461302983 L 264.565437760542 257.537109714192 L 236.947612026532 260.2564695773 L 246.026816850001 233.676586887034 L 266.698883262388 253.185482347957 L 240.065749501137 264.041035112336 L 241.236956291538 234.967732540845 L 267.511137898871 248.233633818619 L 244.287203745431 266.858349828906 L 236.878564706414 237.678152093284 L 266.836405164387 243.088020461503 L 249.306500638873 268.386926296587 L 233.374549510786 241.660072180725 L 264.63509126946 238.199402407735 L 254.725107856132 268.403080061444 L 231.096364777039 246.639557267675 L 261.005017613059 234.023467606009 L 260.083014862118 266.807522461395 L 230.326496051704 252.234556420495 L 256.180339887499 230.978869674097 L 264.897764970635 263.641722724045 L 231.227270313736 257.984022803479 L 250.517679966133 229.406505700764 L 268.707629232581 259.092007946339 L 233.819221901708 263.385903784722 L 244.470160066654 229.533909256735 L 271.115079206048 253.480435335171 L 237.971486683855 267.940871422629 L 238.551193066844 231.448320296876 L 271.826523428919 247.242668861585 L 243.40567688899 271.197992893376 L 233.290918342498 235.081334169473 L 270.684450501233 240.894314552871 L 249.71349429066 272.798199807847 L 229.188977793282 240.207076294003 L 267.688666255465 234.988301691589 L 256.387075291106 272.511447515114 L 226.667818824185 246.45467609675 L 263.004185452275 230.066832646997 L 262.859843079496 270.263870212048 L 226.030833498141 253.334525034568 L 256.954470004267 226.612068347976 L 268.554583966108 266.152009591523 L 227.429371927012 260.276514408633 L 250 225 L 272.934670461262 260.442264641031 L 230.842014929303 266.677278196125 L 242.703506880769 225.461842201155 L 275.553904782974 253.554989499663 L 236.068503330546 271.952526063052 L 235.684468115562 228.056765350896 L 276.100406061081 246.034044447212 L 242.739478515239 275.58993606419 L 229.566540704893 232.658900229939 L 274.430330416582 238.503959127743 L 250.341796284828 277.197852402344 L 224.922391870187 238.960363661445 L 270.587975613707 231.618072458814 L 258.257755967842 276.545234343956 L 222.220788363195 246.490669460199 L 264.809924564908 226.00195561339 L 265.815267508265 273.588923537161 L 221.780781995655 254.651422924573 L 257.512235381149 222.197008801602 L 272.344884040498 268.485295702712 L 223.737366654262 262.763780386207 L 249.261175193966 220.609284835071 L 277.23886268203 261.584660538381 L 228.022109102726 270.124917682006 L 240.729490168752 221.468304511145 L 280.007061577704 253.408262823179 L 234.361038173041 276.068810348287 L 232.641570156721 224.79990251257 L 280.324581503499 244.609289783561 L 242.29061349789 280.026077994988 L 225.711976191109 230.41602952773 L 278.06662071835 235.920767014773 L 251.191009772371 281.577547335443 L 220.582544822664 237.923024762406 L 273.326996077485 228.094492610282 L 260.334384235793 280.496565420831 L 217.763587049806 246.74828043882 L 266.418116373326 221.836096599514 L 268.944384672251 276.775927423523 L 217.584520725953 256.183583381328 L 257.851766701188 217.741826467233 L 276.262033633363 270.636511077217 L 220.158615319865 265.441883316883 L 248.301742045524 216.242690866717 L 281.612400520201 262.516234791279 L 225.365431348834 273.722943058799 L 238.55100766841 217.561125565285 L 284.466222876354 253.039651400656 L 232.85308851412 280.2823946625 L 229.427516169764 221.684405196876 L 284.490897843925 242.970208685893 L 242.060815062393 284.498251296645 L 221.733941808138 228.357681402071 L 281.586025906371 233.148799228481 L 252.260458703056 285.928962223418 L 216.177292283071 237.09788999058 L 275.899898650418 224.423541099322 L 262.613930988188 284.357659190132 L 213.304552470409 247.227973556571 L 267.824885941764 217.576652838377 L 272.24206536974 279.818291837196 L 213.45017217855 257.929065911086 L 257.97146733307 213.254718553836 L 280.299232028119 272.600808359574 L 216.700346158334 268.306639615866 L 247.122516028834 211.908530010045 L 286.047380133909 263.234288249901 L 222.877711165765 277.465277140279 L 236.171219105927 213.748037032683 L 288.923042408703 252.448830261643 L 231.548405859119 284.58581607625 L 226.047546270833 218.716778293275 L 288.591264162349 241.118877866405 L 242.051542775527 288.998231084893 L 217.639320225001 226.488589908302 L 284.981386937715 230.192360869759 L 253.54918834065 290.243797809384 L 211.714584242749 236.487526492368 L 278.301054877163 220.611391784574 L 265.093106660072 288.120835921418 L 208.852037387832 247.929934090994 L 269.02660622973 213.23115101912 L 275.702959904558 282.709598776883 L 209.385793564167 259.885658075592 L 257.870015212601 208.743935469395 L 284.449516380265 274.37356808442 L 213.369647111024 271.353623749357 L 245.724590947339 207.615086676597 L 290.535807453775 263.736386499749 L 220.564474445067 281.345650979121 L 233.593543073459 210.036664664751 L 293.369163112602 251.635753927876 L 230.450491778475 288.971486092995 L 222.507118375466 215.903351191365 L 292.61765908966 239.057644964747 L 242.263980793293 293.517743586191 L 213.435152665297 224.813258658773 L 288.245688866237 227.055996793345 L 255.055966042332 294.513786711296 L 207.202456766718 236.094235253128 L 280.525042927071 216.664407095411 L 267.768364474409 291.778525870411 L 204.414400968681 248.854067647785 L 270.019902112614 208.807239478261 L 279.32150352844 285.443609167686 L 205.399368285903 262.050877590594 L 257.546364465041 204.217772188755 L 288.705768902525 275.95040372835 L 210.173458252009 274.578172682189 L 244.109338022476 203.37060903822 L 295.069606512041 264.020362650437 L 218.431037483617 285.357610293106 L 230.821653660029 206.434520183245 L 297.796225912942 250.600656706425 L 229.562594004877 293.431698518369 L 218.811902652352 213.250270969249 L 296.562139304767 236.789126320962 L 242.699036368731 298.048474794263 L 209.128631645943 223.335955879368 L 291.372068349599 223.74448704603 L 256.779282301684 298.730702144275 L 202.649023622541 235.920048433984 L 282.566653485348 212.58913151549 L 270.635903933465 295.323277340113 L 200 250 L 270.801654165862 204.312680271613 L 283.091922089949 288.0142695891 L 201.498797475721 264.421974680981 L 256.999746766778 199.68455957461 L 293.060724200602 277.32716654393 L 207.118564349842 277.975390552795 L 242.278404719195 199.183300320471 L 299.640627853843 264.084319872692 L 216.482501190703 289.494522070393 L 227.859476838618 202.948993271766 L 302.195878507439 249.344052718087 L 228.887702768604 297.958637445336 L 214.96777577296 210.763495750686 L 300.416847962622 234.316204492731 L 243.357338621091 302.582079169667 L 204.727093568524 222.060709686057 L 294.353821017056 220.26284207953 L 258.717352054445 302.886366609542 L 198.062467830771 235.966726961601 L 284.420895446428 208.392284890107 L 273.69167455248 298.747764634898 L 195.617180102989 251.367077192121 L 271.36900220931 199.755341133823 L 287.008237885031 290.415718831229 L 197.691891603767 266.995934690625 L 256.229672445015 195.152655659295 L 297.506976753128 278.499950171497 L 204.211587571861 281.54015357145 L 240.233713309179 195.06131013327 L 304.240657023203 263.926633681233 L 214.723745495465 293.749581348068 L 224.711186612522 199.587343677869 L 306.559784151457 247.866735660883 L 228.428547374364 302.544385348198 L 210.980814962065 208.44878823698 L 304.1740230457 231.642025519029 L 244.239237567543 307.110188374727 L 200.238011169693 220.99130358578 L 297.184408691454 216.616297742195 L 260.868116245974 306.972660542264 L 193.451033144366 236.235758373219 L 286.083001404477 204.080755563223 L 276.931379832421 302.044795900473 L 191.274266951566 252.95436590897 L 271.719348608398 195.143187332594 L 291.064275704119 292.642294273363 L 193.986362167964 269.769480944665 L 255.235931314427 190.630436895067 L 302.036988529238 279.465095024586 L 201.458980337503 285.267115137548 L 237.977459173036 191.012725846468 L 308.86142311631 263.545953961341 L 213.159423959706 298.115818158058 L 221.381200924351 196.356693432753 L 310.879630434124 246.169778308711 L 228.187593022748 307.180931278344 L 206.857291854348 206.311709419352 L 307.826005631478 228.769995932449 L 245.344803418372 311.624420036106 L 195.668985837279 220.131272205696 L 299.857466458968 212.810310053822 L 263.229243659135 310.981530910656 L 188.82301546463 236.728354918882 L 287.548432936012 199.661593350109 L 280.350481468406 305.207320842764 L 186.979557503529 254.760654109368 L 271.850361329264 190.484273424744 L 295.253669070509 294.688538079208 L 190.389813471269 272.739077861908 L 254.018593249876 186.126289380591 L 306.643096737123 280.219192445016 L 198.867018327081 289.150711171535 L 235.51210884267 187.045564017987 L 313.494607394499 262.941206737336 L 211.793958600991 302.586104634373 L 217.874177331052 193.264019195547 L 315.147138037964 244.254531745584 L 228.167037879294 311.860179154573 L 202.603666162376 204.357612477517 L 311.365248068626 225.703779522814 L 246.673826136501 316.116386527318 L 191.027739798781 219.483897254733 L 302.366809580301 208.850549768186 L 265.798133001186 314.9049997587 L 184.186754201178 237.445451922755 L 288.812885669973 195.142002351803 L 283.944203790251 308.228438318796 L 182.741311252064 256.784451923941 L 271.759976744925 185.786734921355 L 299.569866664657 296.54920320315 L 186.909734493889 275.900934314585 L 252.57800849462 181.648600071384 L 311.317521696777 280.759088623775 L 196.441793652188 293.185165656799 L 232.840397785622 183.167761882125 L 318.131851949421 262.111595681088 L 210.631534930601 307.153162275412 L 214.195008448804 190.316144728923 L 319.354069474297 242.122624335831 L 228.368810393751 316.57395614066 L 198.226579161454 202.591636869906 L 314.784322054557 222.447293854661 L 248.225815261698 320.577703763401 L 186.3221081891 219.052203721116 L 304.706440237081 204.742896727843 L 268.571915247838 318.73517268493 L 179.550623583558 238.387706405088 L 289.872294140555 190.52933361758 L 287.707538431218 311.101403792861 L 178.567741505358 259.023992816632 L 271.446402189863 181.058779869293 L 304.006138928709 298.219259202242 L 183.553490867722 279.251007232814 L 250.914807703509 177.205747981962 L 316.052374830018 281.081888284254 L 194.189208193963 297.364496386885 L 229.965327933029 179.387168905581 L 322.76476841271 261.056603359292 L 209.676097211012 311.809569355111 L 210.348817171555 187.51973351285 L 323.492237786691 239.775960431196 L 228.794566872235 321.314021102893 L 193.732846997088 201.018702620828 L 318.075926607236 219.004706541699 L 250.000000000001 325 L 181.560031004489 218.838956309303 L 306.8705541075 200.493434016224 L 271.547456242731 322.464247249713 L 174.923023932194 239.555495966102 L 290.722836418401 185.831077661845 L 291.635249221152 313.819636651211 L 174.467006702023 261.477235008823 L 270.908118260624 176.308680356505 L 308.555584845679 299.693897848533 L 180.328316960115 282.785005450508 L 249.029901721002 172.806095387465 L 320.839666760859 281.184958124238 L 192.114967115081 301.682520912896 L 226.890164953304 175.711538418712 L 327.384946702529 259.775992218016 L 208.931343937024 316.547768476343 L 206.340951667324 184.88128150305 L 327.553515214739 237.216718815683 L 229.445689304353 326.072073140061 L 189.129453820711 199.643504809855 L 321.232895924057 215.380431281247 L 251.995329578197 329.374924629094 L 176.749544949676 218.84665611976 L 308.853546765183 196.108441911943 L 274.72135955 326.084521303611 L 170.312372896295 240.948917933148 L 291.360938516034 181.054856842031 L 295.72187729962 316.376727368849 L 170.44720177004 264.141863165204 L 270.143880860355 171.544763948581 L 313.211138887245 300.968538536802 L 177.241308074088 286.49839378973 L 246.924481094135 168.457979032528 L 325.67131551906 281.06593001368 L 190.224572551445 306.132862686153 L 223.61843527385 172.148519329431 L 331.98396379926 258.269805303736 L 208.400723544887 321.360074260128 L 202.176980156638 182.407110040616 L 331.52984181048 234.447350889381 L 230.323283447626 330.839760178501 L 184.423544759808 198.470508268264 L 324.248207120811 211.579123652041 L 254.210473863465 333.694156963584 L 171.898775185388 219.077537574484 L 310.65001989556 191.59439165056 L 278.08996955774 329.588401229358 L 165.727096666488 242.567788771803 L 291.783278563293 176.208417604023 L 299.96174644486 318.766444521871 L 166.516349536861 267.015290339824 L 269.152722985075 166.775405064026 L 317.965578124254 302.038833482659 L 174.299412771879 290.386397379782 L 244.600015320477 164.169701355169 L 330.539154839759 280.722703945083 L 188.523317489114 310.708957390617 L 220.153922853085 168.705647927175 L 336.553392542621 256.538366719826 L 208.087430353155 326.238681163818 L 197.862685477383 180.10335891926 L 335.41323399986 231.470578592814 L 231.428177170833 335.608687624575 L 179.622418728336 197.503942487551 L 327.114987843861 207.605676679051 L 256.643824247568 337.949415002986 L 167.015926983397 219.533565591374 L 312.25478732418 186.957938999259 L 281.64937482974 332.968410090146 L 161.175621169884 244.411643761892 L 291.98679074915 171.299622602004 L 304.348968613901 320.982741639114 L 162.682392198323 270.094660181065 L 267.933956250197 162.009016295895 L 322.811529493747 302.90067270632 L 171.509425328809 294.444006207656 L 242.058251831816 159.949521733457 L 335.434942551895 280.15345073378 L 187.016279832197 315.404059459822 L 216.500665705698 165.390339784168 L 341.084810442469 254.582281817992 L 207.994400739195 331.175671421558 L 193.404059440929 177.975979616283 L 339.195793081566 228.28939207322 L 232.760919058112 340.370427067039 L 174.733521083878 196.747796744463 L 329.826523748617 203.465216168854 L 259.293494795221 342.132464172469 L 162.109277296486 220.216433009896 L 313.662880851367 182.205917649807 L 285.39541170263 336.217195676972 L 156.666363255369 246.479736938633 L 291.968669026026 166.336442699441 L 308.877449689066 323.019763886988 L 158.95318285391 273.376849393501 L 266.48717215547 157.254039687349 L 327.741477216122 303.550188797568 L 168.877978324083 298.665979895734 L 239.301214713993 155.805647762703 L 340.350369048039 279.356614465623 L 185.708316666882 320.211248772501 L 212.66295218373 162.209881761296 L 345.569808495483 252.402437124386 L 208.124309554844 336.16302310006 L 188.807296984126 176.030728693524 L 342.869713655762 224.907047094915 L 234.321777275217 345.116525021639 L 169.764436137685 196.205815447241 L 332.376265837728 199.16309581975 L 262.157323655741 346.235126027504 L 157.187166250626 221.127558270712 L 314.869555888099 177.345332435687 L 289.323668125656 339.3275384478 L 152.207721876867 248.771041299407 L 291.726370573381 161.326948858332 L 313.540895426122 324.871854581322 L 155.336477115929 276.858470454904 L 264.812243087312 152.518937968842 L 332.747770356165 303.983761457344 L 166.4115353753 303.046852702919 L 236.331203164089 151.746226570891 L 345.277065828328 278.330914689514 L 184.604058727004 325.123437521315 L 208.645317016865 159.17142412564 L 350 249.999999999998 L 208.479566784471 341.192618262636 L 184.078790122399 174.273161374099 L 346.427291975148 221.327062195519 L 236.110738698986 349.838511710222 L 164.722879524294 195.881493707126 L 334.757837652264 194.704892110491 L 265.232874736842 350.249286916425 L 152.257988566852 222.268083351444 L 315.870296887769 172.383352379034 L 293.429487739634 342.292359351535 L 147.80806928237 251.284249276083 L 291.257619017079 156.279303923618 L 318.332817598751 326.533561520524 L 151.839924800043 280.535874586112 L 262.909323057112 147.812185764607 L 337.822630521216 304.198021811999 L 164.116384023155 307.580938744882 L 233.15078968581 147.779336180065 L 350.206614110893 277.075348352896 L 183.70790506613 330.133377248677 L 204.452537114963 156.281972786789 L 354.367029361176 247.376418035709 L 209.062314448831 346.256251234471 L 179.225121708917 172.708625300863 L 349.860934210993 217.553215590635 L 238.1275083113 354.527909866704 L 159.616690437184 195.778073139438 L 336.965042309558 190.096398972209 L 268.517439639586 354.16690659319 L 147.330184920366 223.638871960524 L 316.660822569077 167.327303573586 L 297.70797419197 345.104727529699 L 143.475742216514 254.017773472625 L 290.560407401723 151.201754310078 L 323.246540334371 327.99964313409 L 148.471061704563 284.40515497133 L 260.778848175027 143.142260776209 L 342.958159689943 304.189856496017 L 161.998628772693 312.262337428928 L 229.762818024737 143.912976921303 L 355.130553501368 275.589191477966 L 183.024017941005 335.233666043607 L 200.089627136513 153.548381658846 L 358.662580878734 244.533418182028 L 209.874423757378 351.345636961823 L 174.253059005239 171.342254482244 L 353.163164626679 213.589541829185 L 240.371508858034 359.176243562091 L 154.45382373729 195.89853789799 L 338.991869381237 185.343622247818 L 272.008039852695 357.980026772742 L 142.412233244361 225.240507991192 L 317.237090925024 162.18466190955 L 302.153995683914 347.757867888995 L 139.219033144461 256.969747667744 L 289.633000912903 146.102621598821 L 328.275206635597 329.265074441109 L 145.237301485829 288.462150226279 L 258.421536858024 138.517634950863 L 348.14634816491 303.956411499397 L 160.064184297481 317.084939099045 L 226.17040084475 140.155062910937 L 360.04039071378 273.872000577217 L 182.556317911113 340.416755893436 L 195.561834826508 150.977345155042 L 362.878387509502 241.473005614245 L 210.917492511999 356.452419457945 L 169.169547069018 170.178963430858 L 356.32663365156 209.440328202427 L 242.84188077366 363.775047040823 L 149.24234194113 196.245610946716 L 340.832501605317 180.452773943743 L 275.701429204787 361.680779621344 L 137.512639986287 227.073294236955 L 317.59530401363 156.963045646878 L 306.762189746364 350.245168537929 L 135.046181504878 260.138028081952 L 288.473939346865 140.990294050788 L 333.411785082029 330.325052813113 L 142.145927636966 292.702448111431 L 255.838389772485 133.946765642381 L 353.379082641896 303.495095776341 L 158.318768812867 322.042430886329 L 222.376917147638 136.513413595564 L 364.927608335259 271.923613806517 L 182.308479158917 345.674960184059 L 190.874636127959 148.575390821563 L 367.006239597001 238.197462333498 L 212.192842764705 361.568180328379 L 163.981701964281 169.223441500407 L 359.344125847828 205.110110909312 L 245.537482371887 368.315873560646 L 143.990407095659 196.821750571724 L 342.481321426164 175.430266278666 L 279.594096572611 365.261396174309 L 132.639931324121 229.137251370136 L 317.731912525726 151.670207843159 L 311.526968240274 352.560188080757 L 130.965364999703 263.520194907845 L 287.082039324996 135.873218044582 L 338.649076706447 331.175003536153 L 139.204085577144 297.121389487188 L 253.030689510456 129.438086772434 L 358.64815438922 302.803584611428 L 156.76789762413 327.128302759592 L 218.386009437668 132.995745373406 L 369.783673626834 269.744151854667 L 182.283925035025 351.000461342203 L 186.033730070706 146.348872117412 L 371.037993560366 234.70934550515 L 213.701518731286 366.68444736804 L 158.696803800083 168.480147426044 L 362.208567763328 200.603670981514 L 248.456890302338 372.790304228229 L 138.706272546676 197.629147137504 L 343.932917356608 170.282705534641 L 283.682268842837 368.714214673723 L 127.802644350395 231.432117184669 L 317.643620125711 146.314028642789 L 316.442522577406 354.696662762243 L 126.984690928477 267.11355410304 L 285.456396251262 130.759889446238 L 343.979722039717 331.81058516682 L 136.41877485851 301.714072507956 L 250.000000000011 125 L 363.945267529767 301.879822740348 L 155.416876855697 332.335853771426 L 214.201580633769 129.609663299418 L 374.600047352638 267.33401856813 L 182.48582383264 356.38531861325 L 181.045033442146 144.303961346675 L 374.965580534871 231.011485535125 L 215.444284963513 371.7927032228 L 153.322289603747 167.953304072996 L 364.913035663186 195.926029971239 L 251.598400273154 377.189956822726 L 133.398274608101 198.669720090067 L 345.182090156119 165.016885715382 L 287.96191412555 372.031688818619 L 123.009318231747 233.95734610377 L 317.327387561042 140.902507433923 L 321.502829157075 356.648513456748 L 123.112187574871 270.915139444077 L 283.596386010129 125.658844918272 L 349.39620831808 332.227694677577 L 133.796841497625 306.4753570513 L 246.748165649638 120.640865906741 L 369.262047418613 300.722027222111 L 154.270797366918 337.658198494119 L 209.827790731248 126.362652881633 L 379.368192629706 264.693901310524 L 182.91708479489 361.821475967652 L 175.914675244051 142.446642749724 L 378.781014956422 227.106983886045 L 217.421624781417 376.884394107854 L 147.865746034401 167.646893398666 L 367.450763133475 191.082445405767 L 254.960028039361 381.506494599502 L 128.074824139221 199.94511521022 L 346.223858819635 159.639782017422 L 292.428745216525 375.206395920301 L 118.268485351675 236.712108953706 L 316.7804365369 135.443754880229 L 326.701655014475 358.409852495244 L 119.355795653083 274.921714839893 L 281.501666403573 120.578653175769 L 354.890876847032 332.422472386242 L 131.344970438513 311.399869379036 L 243.277310227546 116.368995206115 L 374.590049109024 299.328690059751 L 153.334528860036 343.088273640072 L 205.269053216096 123.262071976004 L 384.079583790672 261.824771055719 L 183.580354359295 367.300770129455 L 170.648990940516 140.782705759382 L 382.476403082351 222.999210634457 L 219.633738967444 381.9509385753 L 142.334901943344 167.564651632623 L 369.815148549862 186.078406011939 L 258.539510655991 385.731635066245 L 122.74439803741 201.456702119254 L 347.053466371351 154.158544119441 L 297.078223305628 378.231044955523 L 113.588662444347 239.695293003793 L 316.000253351927 129.945984833986 L 332.032563675494 359.974990324282 L 115.72335982173 279.129776903289 L 279.172178325282 115.527906197018 L 360.455930515199 332.391306665336 L 129.069678153953 316.482007026048 L 239.589835476032 112.192639983984 L 379.920765899297 297.698580567351 L 152.612714185878 348.618844861205 L 200.530031234608 120.315142787019 L 388.725715251529 258.727882214588 L 184.478012642597 372.814938719751 L 165.254516501366 139.317738428496 L 386.043951441006 218.691801771465 L 222.080544724082 386.983736323317 L 136.737620787513 167.710064679046 L 371.999762404675 180.919626714942 L 262.334307995736 389.8571587237 L 117.415530653461 203.205572040074 L 347.666385458442 148.580489295782 L 301.905561928535 381.098484510245 L 108.978341727231 242.905502273006 L 314.984592291864 124.417506137757 L 337.4889212136 361.338441990539 L 112.2226202727 283.535557777969 L 276.608146671173 110.515210396526 L 366.08344145198 332.130838426651 L 126.977305391734 321.715943912922 L 235.688419462201 108.119984978468 L 385.245637953253 295.83074748046 L 152.109763852201 354.242513721265 L 195.615633521279 117.528943981305 L 393.29811037666 255.404772194876 L 185.61217016946 378.355628508116 L 159.737982246386 138.057121034671 L 389.475975202521 214.188656248252 L 224.761674895768 391.974177039112 L 131.081892902456 168.086363746094 L 373.998354485606 175.612043415201 L 266.341604529667 393.874917763299 L 112.096805137199 205.192535815646 L 348.058323739167 142.913095359588 L 306.905731158131 383.801710606997 L 104.445982040352 246.341058103447 L 313.731478777714 118.866714321627 L 343.063902503297 362.494933445275 L 108.861204402579 288.135028219595 L 273.810080984524 105.549177767967 L 371.765358822107 331.637965377167 L 125.074010072537 327.095635678314 L 231.576014666057 104.15913890677 L 390.556060986701 293.724520808155 L 151.8298507402 359.951724835532 L 190.531010088658 114.910402921155 L 397.788330333324 251.857260694759 L 186.984664848364 383.914403764968 L 154.106306495417 137.006019868096 L 392.764906463371 209.493932769213 L 227.676477456666 396.913649268056 L 125.375827641727 168.696521205945 L 375.804860899801 170.16180754813 L 270.558311370141 397.776844713941 L 106.796844720808 207.418122186974 L 348.22522906063 137.163993441869 L 312.073462032803 386.333874408608 L 100 250.000000000004 L 312.239212265193 113.302083203114 L 348.750497665239 363.439407662715 L 105.646618573979 292.923900927965 L 270.778775835229 100.638417004943 L 377.493516750809 330.909846041821 L 123.36576034563 332.614825226224 L 227.25584580712 100.318125846679 L 395.843395012448 291.379513424435 L 151.776905033747 365.738773171528 L 185.281547682097 112.466288025171 L 402.187982927821 248.087448729746 L 188.59705919724 389.482754707429 L 148.366589029536 136.169381208267 L 395.90330243729 204.612046335039 L 230.824015264646 401.793549301113 L 119.627645389046 169.54324668994 L 377.413410936634 164.575280430706 L 274.981068573935 401.554961030328 L 101.524303947444 209.882576332609 L 348.163294421307 131.340960612536 L 317.40325121759 388.688289791527 L 95.6487611746588 253.880086736463 L 310.506368893026 107.732156397234 L 354.541518697134 364.167030567046 L 102.586239974249 297.897634128111 L 267.515310932377 95.7915246072961 L 383.259642372502 329.943903549632 L 121.858327809023 338.267048484132 L 222.731407411647 96.6048766803506 L 401.098973136066 288.795622397719 L 151.954609366387 371.595811504764 L 179.872865003531 110.203201262736 L 406.488731415516 244.097717393872 L 190.450637822191 395.052106031647 L 142.526104369193 135.551925494841 L 398.883853545175 199.547664538309 L 234.20306608241 406.605290072856 L 113.845669450417 170.628983422191 L 378.818333763163 158.859027399954 L 279.606247704553 405.201385615131 L 96.287859852898 212.585858670849 L 347.868962713512 125.451912349562 L 322.889365894559 390.858440781833 L 91.4005712909636 257.978797726931 L 308.531803876851 102.165538743763 L 360.429606285404 364.673196762149 L 99.6873085786779 303.051435396965 L 264.021050969503 91.0170759807501 L 389.055363996185 328.737829179427 L 120.55728090002 344.045640366811 L 218.006461121579 93.0272206080462 L 406.314110394968 285.973030056274 L 152.366394190247 377.514858022843 L 174.31080770782 108.127570789257 L 410.682303276952 239.890726355793 L 192.546405151441 400.613825524012 L 136.592294874457 135.15814169843 L 401.699391396864 194.305703614993 L 237.81212286558 411.340310062167 L 108.038317832898 171.955904795516 L 380.014164946064 153.019811748081 L 284.429954651358 408.708343267471 L 91.0962031078094 215.527643926684 L 347.338931241761 119.504894863019 L 328.525848878578 392.837988847151 L 87.2636674774672 262.29333466215 L 306.31465364673 96.610887659362 L 366.40723679145 364.95353505908 L 96.9569192256104 308.380265733239 L 260.297645202804 86.3236165377633 L 394.872219380618 327.28958566155 L 119.46797846229 349.943740940986 L 213.085032747747 89.5928767393258 L 411.480112632927 282.91220478876 L 153.015433371749 383.487804071871 L 168.60144317622 106.245643728595 L 414.760498952281 235.469412090511 L 194.885083426983 406.159232743855 L 130.572763673597 134.992281896224 L 404.342896657445 188.891324254331 L 241.64939431853 415.990082187921 L 102.214094917426 173.525911192585 L 380.995652793964 147.064588459155 L 289.448032703546 412.06817305017 L 85.9580291283054 218.707320464203 L 346.570156012193 113.508077280079 L 334.306523953832 394.620780038077 L 83.2462095539341 266.820623409063 L 303.854337725656 91.0769044218841 L 372.466729406788 365.003913796029 L 94.4020138104511 313.878843866784 L 256.347026761605 81.7196528073243 L 400.701664111905 325.597410232775 L 118.595563495486 355.954301785869 L 207.971409069147 86.3094457692593 L 416.588285402339 279.613901578631 L 153.904640017942 389.506422038265 L 162.751055070647 104.563479109562 L 418.715200526297 230.836985848479 L 197.467110956256 411.679607770175 L 124.475267425645 135.058356057795 L 406.807506791151 183.309927170955 L 245.712805717383 420.546122691731 L 96.3815830324597 175.340627056029 L 381.757764514658 141.000497752972 L 294.656065876827 415.273336568257 L 80.8820291627731 222.123989885587 L 345.559855789387 107.469743698008 L 340.225001427363 396.20085197232 L 79.3562713739109 271.557316173069 L 301.150560347564 85.5723253946276 L 378.600253471126 364.820445945669 L 92.0293736056248 319.541650804167 L 252.171411691862 77.2136435615808 L 406.535080076627 323.659817440745 L 117.944957092822 362.070092543833 L 202.670134381295 83.1844017469728 L 421.629942886501 276.07916227137 L 155.036662537573 395.562373359317 L 156.766137673638 103.08694096266 L 422.538380356355 225.996931362723 L 200.292640625242 417.166200004632 L 118.307708923477 135.360127045533 L 409.08652367574 177.567148442381 L 249.999999999986 425 L 90.5494339359811 177.401398209993 L 382.295692181105 134.834858440923 L 300.049382489732 418.31642615145 L 75.876881362529 225.776466897639 L 344.305515916311 101.39828511165 L 346.274683894565 397.572440655434 L 75.6018322282346 276.499793920919 L 298.20331181235 80.1059131978944 L 384.799835946826 364.399494005475 L 89.8456117135131 325.362934607015 L 247.77329773268 72.8139909670836 L 412.363784022944 321.47560169562 L 117.520852572676 368.283707656335 L 197.186006795594 80.2250839440496 L 426.596416833977 272.309315574444 L 156.413880940893 401.647216655812 L 150.653390018517 101.821691583461 L 426.222109635528 220.953002296212 L 203.361538675381 422.610237023393 L 112.078129543129 135.901105834991 L 411.173421080693 171.668854616152 L 254.508339122529 429.343343557424 L 84.7263602130947 179.709289436027 L 382.604858500986 128.575161099824 L 305.623058987504 421.190172933123 L 70.9512418442937 229.663279445805 L 342.804891894184 95.3021912226652 L 352.448772212286 398.729987131698 L 71.9907683171172 281.644169062716 L 295.01286957682 74.6864478357128 L 391.057369043953 363.737674665865 L 87.8571656589633 331.336715398737 L 243.155462827141 68.5290317684689 L 418.179036202501 319.043839565871 L 117.327709809292 374.58757327901 L 191.524074293109 77.4386888299636 L 431.47906549739 268.30597678885 L 158.038403381314 407.752415979414 L 144.419709814412 100.773184968897 L 429.758566883352 215.709219430822 L 206.673383745237 428.002933469964 L 105.794701546133 136.684546959246 L 413.061852002162 165.621137589886 L 259.234905681445 433.567852624186 L 78.9211265965633 182.265082306015 L 382.68092238436 122.229061069289 L 311.371924010021 423.88745481865 L 66.1137357521689 233.782669116749 L 341.056012718116 89.1900421370672 L 358.740271674109 399.668143959364 L 68.5308442984364 286.986288391263 L 291.579799080028 69.3227177853714 L 397.364617989052 362.831863252101 L 86.0702901283927 337.456790596332 L 238.32096336754 64.367028512342 L 423.972049085421 316.363891816407 L 117.369749768184 380.973954370501 L 185.689630535648 74.8322621617822 L 436.269282568684 264.071047272597 L 159.912062942991 413.869349168209 L 138.072187171627 99.9466604321758 L 433.14004635668 210.269867600608 L 210.227466178615 433.335499981391 L 99.4657202412586 137.713444181786 L 414.745655848237 159.43030926886 L 264.176504800369 437.665305029047 L 73.1425412180083 185.069273273926 L 382.519784304065 115.80437127833 L 317.290562701053 426.401304335812 L 61.3729483270577 238.132591808943 L 339.057183965664 83.070499958498 L 365.141998383367 400.381781503893 L 65.2297049196658 292.521736276006 L 287.904954301638 64.0235110574706 L 403.713228931234 361.679197935579 L 84.4910498618472 343.716740362469 L 233.273132176721 60.3361608191415 L 429.733996141183 313.435405186072 L 117.650949250919 387.434961948614 L 179.688210437231 72.4126911953422 L 440.95850610307 259.606713635984 L 162.03641467703 419.989316302903 L 131.618098131879 99.3471364026339 L 436.358966373032 204.639492370841 L 214.022787599542 438.599152139908 L 93.0995960121608 138.990526402235 L 416.218865467908 153.102896005292 L 269.329666280366 441.627565870596 L 67.3994467970085 188.122072029184 L 382.117591444231 109.309054907662 L 323.373321254812 428.724916360417 L 56.7374159913103 242.710718671627 L 336.806990635044 76.9523002843221 L 371.646585818154 400.865994043676 L 62.094866741049 298.245838109995 L 283.989478052993 58.7976062344272 L 410.094736978965 360.277083710243 L 83.1253127047106 350.109933273873 L 228.015576226662 56.4445167107005 L 435.456020677561 310.258313903096 L 118.175035854785 393.962560508324 L 173.525585500006 70.1866970247108 L 445.538227423813 254.91544666872 L 164.412732889738 426.103548256691 L 125.064898009271 98.9794044159337 L 439.407877539083 198.822896465904 L 218.058060755736 443.785119442427 L 86.7048462181013 140.518253798425 L 417.475714017198 146.645632823621 L 274.690647012156 445.446596158954 L 61.7007117759678 191.42340011299 L 381.470742631508 102.751217893255 L 329.614311697029 430.851655709889 L 52.2156174564851 247.514437311075 L 334.30429972989 70.8442436117306 L 378.246491583054 401.116105682478 L 59.1337099573148 304.153664006617 L 279.834801999366 53.6537634950478 L 416.500574360382 358.623196130766 L 81.9787428250993 356.629532200821 L 222.552174095627 52.7000840012261 L 441.12924473006 306.832840936528 L 118.945483151727 400.548575594941 L 167.207758917528 68.160827057144 L 450 249.999999999993" fill="transparent" stroke="#4488ff"><animateTransform attributeName="transform" from="0 250 250" to="360 250 250" dur="10s" repeatCount="indefinite" attributeType="xml" type="rotate" /></path></svg>

