<svg viewBox='0 0 500 500' xmlns:xlink="http://www.w3.org/1999/xlink" xmlns="http://www.w3.org/2000/svg"><path d="M 250 250 L 250 250 L 249.809595474611 250.061205528438 L 250.325077665773 249.766923808133 L 249.642769696175 250.482064840067 L 250.256754887846 249.242321356004 L 249.984292682688 250.999876632482 L 249.650756599806 248.851945538129 L 250.797794689261 251.150444972081 L 248.729615362163 249.027311523689 L 251.695492541276 250.604404700907 L 248.000986879269 249.937178481844 L 252.114563927935 249.392859658173 L 248.00656984193 251.336501479572 L 251.612849570739 247.960706920973 L 249.018503903464 252.622339682895 L 250.141319352129 247.003330375114 L 250.834692820128 253.089221244266 L 248.151214358552 247.146582460982 L 252.788211016715 252.277252582887 L 246.462472106156 248.612233304812 L 253.992106913713 250.251162078117 L 245.928689417905 251.031712239008 L 253.729782918774 247.66575078905 L 247.034575552313 253.516569044546 L 251.822939658505 245.559629407195 L 249.607704521361 254.984586668666 L 248.801974981282 244.939887742893 L 252.792507346746 254.621893845424 L 245.776192267878 246.323119767783 L 255.330187075242 252.286723801189 L 244.026628212382 249.435350120089 L 256.054903024796 248.666527330494 L 244.470890129966 253.223188490469 L 254.411123333107 245.090622143274 L 247.221186291793 256.206302794344 L 250.768140177637 243.042273311814 L 251.437911859704 257.054956377167 L 246.374065477833 243.549217191615 L 255.572740631292 255.16764567829 L 242.931950360274 246.701110142735 L 257.936917610516 251.002665868514 L 241.940457159314 251.511214478211 L 257.386257005601 245.999599089189 L 244.054072066985 256.213367928539 L 253.846618746528 242.085233786216 L 248.731888912562 258.910212919449 L 248.446732308643 240.932069724629 L 254.346256859785 258.334869603585 L 243.169257498791 243.254560289931 L 258.745798105613 254.42165302753 L 240.123116594049 248.435655349598 L 260.079384174925 248.436026005883 L 240.704049188827 254.663185447336 L 257.56563978413 242.575641801692 L 244.976368356764 259.560498162391 L 251.891220103073 239.163797412297 L 251.543251255668 261.093167967802 L 245.049116238096 239.731175823099 L 257.993720177293 258.40597631017 L 239.641773241859 244.347820028792 L 261.787447008744 252.248575775028 L 237.891456680889 251.491032759267 L 261.25280686431 244.790936967693 L 240.734112954159 258.538345112123 L 256.306909971818 238.86164794023 L 247.363765160366 262.729896538083 L 248.592732763566 236.87522956676 L 255.437448752727 262.247209929672 L 240.942238602894 239.855200422231 L 261.900250290291 256.987420341473 L 236.337165332857 246.945994620449 L 264.141108357114 248.708081104569 L 236.748661397932 255.635780802456 L 261.042131551671 240.448490653536 L 242.306703329214 262.64330598915 L 253.501680457838 235.414451194035 L 251.144967444025 265.156815283961 L 244.196186439652 235.735507434306 L 260.019141389555 261.957290906226 L 236.633087730448 241.575888392353 L 265.497330578058 253.979038194637 L 233.828851142493 250.966408106521 L 265.285966244315 244.058683986045 L 237.110323889395 260.460222261677 L 259.179425025136 235.929528927292 L 245.514158150589 266.397476113783 L 249.243748364932 232.816633523536 L 256.048071863296 266.315049087772 L 239.12567080961 236.161323594396 L 264.753393418905 259.958784194218 L 232.714713657815 244.978160091294 L 268.192725599235 249.485475684781 L 232.648974139572 256.123879619224 L 264.803672048267 238.738947922713 L 239.238276038822 265.415099655319 L 255.586766179413 231.839932718831 L 250.241267965761 269.198484048713 L 243.831447303651 231.60682306853 L 261.619993675158 265.784034559937 L 233.944980299519 238.412233070295 L 269.021130325903 256.180339887499 L 229.800099682922 249.936539932786 L 269.440778566951 243.818080499491 L 233.220873022348 261.950769760472 L 262.436423647596 233.327406714686 L 243.19773421784 269.867792535379 L 250.399586921966 228.803766129527 L 256.163823510716 270.493103223493 L 237.746990698861 232.211695891227 L 267.26727019065 263.307192797998 L 229.300623083007 242.547765754604 L 272.18674545348 250.767024238512 L 228.450580156472 256.114123355589 L 268.810912788799 237.47364538055 L 235.800438604872 267.838510481147 L 258.129921406922 228.484787290913 L 248.83433181823 273.17069739326 L 243.96730711579 227.391005848008 L 262.770461550195 269.846292142236 L 231.614215264466 234.886995015596 L 272.314635661319 258.834989264431 L 225.85264609673 248.404600529578 L 273.671088954358 244.080578768591 L 229.106226153523 262.984999593849 L 266.046987846921 231.091425726915 L 240.432914190874 273.096988312783 L 252.056083411517 224.884018613542 L 255.774212877426 274.734964435919 L 236.830347935193 228.047317601443 L 269.406371376254 267.000963208209 L 226.138379732216 239.674154843497 L 276.075848737805 252.547569940766 L 224.2001215378 255.596987701943 L 273.022335384729 236.675883765404 L 232.025626548817 269.878679509399 L 261.110887682337 225.392111530843 L 246.930306331442 277.026227646144 L 244.612318967536 223.134913119582 L 263.44810347002 274.102043752753 L 229.674986466509 231.033349666759 L 275.335157469049 261.921820163821 L 222.033607104882 246.377726068353 L 277.929843821867 244.853756312989 L 224.808887913203 263.541339366194 L 269.977215207408 229.255100083227 L 237.241764074179 276.042799697058 L 254.205114850524 221.104377336802 L 254.872642011148 278.993402005132 L 236.396436125603 223.711161115119 L 271.137876941255 271.005479247481 L 223.269804274348 236.380285007815 L 279.813198822644 254.818005392433 L 219.944986959968 254.566857909273 L 277.394516838738 236.365468575265 L 227.949156322928 271.503494905 L 264.505824242077 222.60326546725 L 244.539280559973 280.718407237312 L 245.771111129788 218.886072267819 L 263.634011043519 278.507433116035 L 228.158683679886 226.887299997518 L 278.041813761404 265.416117571253 L 218.389461940806 243.866984134357 L 282.169396388062 246.141252012924 L 220.373130355194 263.601786465375 L 274.190430249347 227.84908389363 L 233.649863941733 278.664839976462 L 256.834638611158 217.511113976394 L 253.456463971365 283.220669120514 L 236.46234376002 219.247896599937 L 272.431881780419 275.283407202933 L 220.734771081865 232.692591864489 L 283.352750742896 257.565316773426 L 215.733003845475 253.022081161348 L 281.882406692423 236.558566166553 L 223.609005347953 272.683813640471 L 268.287449765056 220.157594247605 L 241.675235304767 284.201436998597 L 247.444340475345 214.692371866776 L 263.312947724268 283.017047458713 L 227.093675053546 222.487452363558 L 280.395805318073 269.289764619243 L 214.965744968095 240.887317938201 L 286.341816423967 247.942725344854 L 215.844710445601 263.152041493819 L 278.647412697664 226.9009579045 L 229.686155734071 280.924872370627 L 259.928754002716 214.149479167611 L 251.527017763997 287.368813424411 L 237.041426088638 214.703606952215 L 273.261604792776 279.794928133236 L 218.570938177565 228.640831641622 L 286.649556424825 260.772651199382 L 211.612127131521 250.964995665026 L 286.439614515844 237.267580986447 L 219.045575745904 273.393666217535 L 272.425204829688 218.092161020424 L 238.355970002184 287.43069015407 L 249.628669245731 210.601749867907 L 262.473466178353 287.584207341615 L 226.505106815618 217.874776354794 L 282.360679774999 273.511410091698 L 211.806743032149 237.457467473126 L 290.399202538588 250.253839016204 L 211.270577986965 262.181620193399 L 283.306641429259 226.435033700369 L 225.382770761641 282.787070997972 L 263.467786821782 211.063401302591 L 249.089639829771 291.389989663691 L 238.143198681249 210.125493576877 L 273.603580112766 284.497985533365 L 216.813489480219 224.257903746578 L 289.660064335844 264.419406953018 L 207.630126360039 248.401936254797 L 291.018706171395 238.501054655982 L 214.301443041357 273.610443262897 L 276.885434222432 216.441492484449 L 234.603006839591 290.363010314127 L 252.316765335527 206.661880539413 L 261.108003639798 292.161264866442 L 226.414721379791 213.092349947374 L 283.902582682135 278.046655548941 L 208.955199225365 233.599868007527 L 294.293995282439 253.066265141715 L 206.698575570486 260.683943203473 L 288.124552784401 226.472176577731 L 220.774837825143 284.218268452003 L 267.428396450937 208.29519215787 L 246.153651974751 295.236772728265 L 239.773253300703 205.561574600933 L 273.437829405241 289.348547022359 L 215.494890796997 219.579654195115 L 292.3424118921 268.481346140359 L 203.834272812067 245.343216430906 L 295.571507236111 240.263587507246 L 209.421091185505 273.315062929893 L 281.631588134956 215.237338536002 L 230.441472577121 292.957001816334 L 255.497326143942 202.919861881393 L 259.212954679223 296.699908630302 L 226.840694897636 208.185091328862 L 284.990494116232 282.858261084573 L 206.452024714325 229.340526422044 L 297.979289343765 256.367714980062 L 202.177132193355 258.656403106844 L 293.055811850024 227.029648110329 L 215.900272966978 285.188188590398 L 271.783704967113 205.885260990166 L 242.732325755177 298.862469350936 L 241.933196606329 201.060377167291 L 272.748014229852 294.300878643639 L 214.64466094067 214.644660940675 L 294.656708994194 272.93072920358 L 200.271028411923 241.80308687418 L 300.04941192626 242.555783060958 L 204.450635331313 272.492118136781 L 286.624441185919 214.508447373788 L 225.899958673139 295.173310793472 L 259.155125919577 199.421905241531 L 256.788720929164 301.151473763186 L 227.797495200447 203.199478842369 L 285.596449508296 287.906368625909 L 204.336020237791 224.708876017927 L 301.409143114032 260.141992125861 L 197.754952214373 256.100408336955 L 298.053595252167 228.120969323552 L 210.799551966135 285.669663216019 L 276.503447604055 203.871838698046 L 238.842823452517 302.221426746962 L 244.62061208397 196.670625489803 L 271.521567583369 299.307830298589 L 214.28915927252 209.494002239957 L 296.565311105067 277.736470606195 L 196.98573812041 237.799670604355 L 304.403695836194 245.374215811036 L 199.43753385512 271.130002776807 L 291.822328107999 214.280357341836 L 221.01036042614 296.974895395069 L 263.27108640072 196.213028847642 L 253.839737429723 305.467255353684 L 229.295760968766 198.183260560534 L 285.695743425932 293.14874159544 L 202.643608836581 219.737610537546 L 304.538883909803 264.369068928538 L 193.480701348636 253.021403640349 L 303.069883931535 229.755805289085 L 205.51546678172 285.638831411141 L 281.55414379994 202.290713597323 L 234.506115897973 305.269336484465 L 247.829045478207 192.440926375902 L 269.749803836132 304.321130772788 L 214.451390888125 204.171009282212 L 298.033080335934 282.864314893844 L 194.022327521383 233.354875071761 L 308.585830780007 248.711422560972 L 194.430291179429 269.221016143716 L 297.181394850736 214.575206705769 L 215.807695957405 298.327283642459 L 267.822370430729 193.336756956296 L 250.374475380356 309.598823547026 L 231.342202858026 193.185155057776 L 285.267115137554 298.541019662493 L 201.408581320564 214.462498248755 L 307.325407157415 269.025185787176 L 189.402691421198 249.428866910955 L 308.055764320593 231.939871840108 L 200.092867237078 285.075320374647 L 286.899287951363 201.174980300235 L 229.746877527672 307.963531898262 L 251.548013879305 188.419453940149 L 267.428006390632 309.291690760579 L 215.150830573166 198.721004394979 L 299.027633065811 288.277032225138 L 191.423007282396 228.494281593917 L 312.547800009843 252.555917433848 L 189.478153003389 266.761444929325 L 302.655863766199 215.411562466114 L 210.32990596643 299.198817459038 L 272.782498106765 190.834826291007 L 246.405421206952 313.498338586931 L 233.939527194943 188.25454499902 L 284.292914878661 304.036987232126 L 200.661855914532 208.922177051338 L 309.727467874754 274.082972849511 L 185.568565609992 245.33628233637 L 312.961736292869 234.674864992854 L 194.578389316988 283.962406706544 L 292.499558889612 200.554803123171 L 224.593359170314 310.263277389728 L 255.763038493724 184.653635240207 L 264.555492505602 314.169912248026 L 216.403266560467 193.191026217745 L 299.51957268741 293.934632362822 L 189.227986137968 223.24701266862 L 316.24241207863 256.892230553672 L 184.63079559106 263.751622265833 L 308.198311467357 216.804269215025 L 204.617635294269 299.560881486471 L 278.121484900794 188.746901409199 L 241.949031977595 317.11886406892 L 237.086382742518 183.441165204556 L 282.759249838922 309.58885424298 L 200.43125345379 203.157931665675 L 311.705962820787 279.511593524574 L 182.024985909946 240.761089920506 L 317.738026215608 237.958413542492 L 189.020171523884 282.287157183987 L 298.313046994343 200.457195374885 L 219.077239187048 312.130047993744 L 260.4557010028 181.18983856624 L 261.135654847425 318.906002576837 L 218.220665018223 187.629543306819 L 299.48270614676 299.794596015967 L 187.475194003523 217.645577812254 L 319.623611617768 261.700970271659 L 179.938010802933 260.195963404705 L 313.759957879002 218.764318940227 L 198.713997427989 299.388115373879 L 283.806001075031 187.110300594493 L 237.025667324305 320.414676677667 L 240.777330911611 178.794786884062 L 280.656108992691 315.147547777551 L 200.741289422298 197.213454060507 L 313.22420172824 285.276909102511 L 178.817324543124 235.724611570923 L 322.334903405856 241.78405518121 L 183.467560805619 280.040548178188 L 304.295497764466 200.905815797501 L 213.233453698536 313.527797640578 L 265.603723290251 178.073066105378 L 257.175979451484 323.450291482824 L 220.611056093017 182.086157699389 L 298.894243025168 305.812122330151 L 186.200016779188 211.725698686662 L 322.646785311795 266.958908687234 L 175.449388583055 256.102977745303 L 319.290964938345 221.298742572615 L 192.664323171941 298.658608310024 L 289.799551600657 185.959733820145 L 231.659498151883 323.341570694656 L 245.00283967527 174.364899757527 L 277.977466004049 320.663012927502 L 201.612984041518 191.134588367755 L 314.248166087586 291.341663662484 L 175.989361023818 230.251954062813 L 326.702998267342 246.141236363785 L 177.970809626103 277.21756297101 L 310.400570576509 201.920783346313 L 207.100006745784 314.42321459527 L 271.181070196141 175.346652684919 L 252.688039898936 327.753549382017 L 223.578442220866 176.611300021571 L 297.734976000175 311.940391234337 L 185.435044345922 205.526114388476 L 325.269061372273 272.639090090747 L 171.213998632392 251.485257049588 L 324.740743347372 224.410523962335 L 186.515894798233 297.354074658164 L 296.062675678705 185.327054270596 L 225.878392537239 325.857155584773 L 249.74930131862 170.200393796892 L 274.721359550001 326.084521303611 L 203.063691527151 184.969061617246 L 314.746754011176 297.665688340947 L 173.582986563067 224.371889313109 L 330.793620371669 251.015336022557 L 172.58076580134 273.817266343833 L 316.580111277218 203.518511401707 L 200.717761339198 314.785962619843 L 277.158074833064 173.051972271138 L 247.687467638203 331.767305165791 L 227.122729304774 171.255917774493 L 295.989441616005 318.130839271567 L 185.209833191938 199.088367881362 L 327.449600841954 278.710961833803 L 167.280073008651 246.359439803285 L 330.058265731997 228.098536852872 L 180.317667068494 295.460009648292 L 302.553164856845 185.241024841886 L 219.713779343516 327.921145001513 L 254.999074032481 166.349242329685 L 270.889950521862 331.360985534801 L 205.106949533918 178.766201702775 L 314.692009774716 304.206123928095 L 171.637917463783 218.11671251914 L 334.559074742101 256.38771310876 L 167.348556766199 269.842855927759 L 322.784437180777 205.711562408711 L 194.130212452881 314.588906473478 L 283.501585881262 171.22815386548 L 242.193898505094 335.444161763407 L 231.239681239879 166.071158473272 L 293.646060393855 324.333447465431 L 185.55068503534 192.456574653693 L 329.14987909774 285.140527013879 L 163.694691393539 240.746151808921 L 335.192384524091 232.357505303972 L 174.119976592822 292.96582418302 L 309.22629863488 185.727100967733 L 213.200490191132 329.495635589805 L 260.730547234716 162.858188244428 L 266.489555683548 336.441278064124 L 207.75234970673 172.57664406203 L 314.05933670855 310.917660661426 L 170.191419116353 211.522078832941 L 337.952974601865 262.235777812778 L 162.325269972228 265.301689924884 L 328.962632970848 208.508523835477 L 187.383243119938 313.808320443522 L 290.175136161656 169.911808396041 L 236.230895620432 338.738107736105 L 235.92089814637 161.108049346439 L 290.697255416661 330.497039706756 L 186.48044273018 185.677174780285 L 330.333955966473 291.89051824431 L 160.50347076047 234.669923220087 L 340.092152852204 237.177987893658 L 167.974241057156 289.864957918584 L 316.035096356783 186.80723103748 L 206.376580544032 330.545374013463 L 266.918230378007 159.772435027445 L 261.53065748793 341.27455252093 L 211.005430148724 166.452028617602 L 312.82769219396 317.752793990957 L 169.278042154529 204.626819357752 L 340.93054886126 268.533086191729 L 157.561631142669 260.205290931473 L 335.062855946005 211.913906234568 L 180.524864876026 312.424078683674 L 297.139131673088 169.136768150739 L 229.825848967815 341.604823181591 L 241.15381854804 156.417175327312 L 287.139548633122 336.569590084093 L 188.018304656909 178.798669658522 L 330.968732921697 298.920591667057 L 157.750261158891 228.159082351072 L 344.707146704646 242.546385905843 L 161.932649909363 286.154969893685 L 322.930584097758 188.499675584922 L 199.283130780282 331.038010689737 L 273.53286488023 157.135344341731 L 256.027889874839 345.810565929112 L 214.867590506008 160.444688582159 L 310.979763608442 324.662095003144 L 168.929372273769 197.472737363586 L 343.448942639066 275.249457808844 L 153.10768212869 254.569325718852 L 341.032648991919 215.928064077395 L 173.604943885694 310.419826226927 L 304.351060169237 168.933840238482 L 223.009852076962 344.001978250953 L 246.921745610335 152.048357084159 L 282.973634238358 342.498537529601 L 190.179658706847 171.871344773056 L 331.024195890892 306.187540257911 L 155.476849305981 221.24562671739 L 348.987786615684 248.444975586107 L 156.047848144528 281.837606092895 L 329.862075171134 190.818846332974 L 191.964028225024 330.944338777546 L 280.541558690398 154.988141830817 L 250.000000000014 350 L 219.336030252701 154.607332780047 L 308.502124158734 331.594494109077 L 169.173795148715 190.104385725346 L 345.467509143472 282.35111586856 L 149.012460119352 248.413560951511 L 346.819259617746 220.547139916954 L 166.674914164974 307.783129636473 L 311.765718245754 169.330575497366 L 215.817556359855 345.889522612162 L 253.20389742595 148.050330842695 L 278.204428606719 348.231106106816 L 192.975936871596 164.946979922358 L 330.473642272377 313.645525368383 L 153.722671642281 213.96507188435 L 352.885657121083 254.851964423082 L 150.372614872408 276.918843449126 L 336.777462804252 193.775166080667 L 184.465731225804 330.238517036592 L 287.907942884322 153.369632794452 L 243.469785968977 353.794779756542 L 224.403710641726 148.992723177548 L 305.385367641642 338.497576527271 L 170.036277813132 182.568826689569 L 346.948091276258 289.800849210668 L 145.32367995802 241.761794948593 L 352.369963355316 225.763032313608 L 159.787479387469 304.505606360573 L 319.335455807504 170.35105419426 L 208.287003764524 347.229964234588 L 259.975481211755 144.470431752073 L 272.841096371223 353.714629231177 L 196.414491345931 158.078548410696 L 329.293890837446 321.246325349867 L 152.524538465296 206.35627881818 L 356.353822233707 261.74157128672 L 144.959538384413 271.408909911165 L 343.623523462227 197.374950313393 L 176.83701644948 328.898275253559 L 295.592349565782 152.315929338139 L 236.464010775068 357.148387741965 L 230.059340665544 143.653349346079 L 301.624221277613 345.317888024652 L 171.538167786121 174.91537517147 L 347.855291370424 297.558195411616 L 142.087421308891 234.641765718832 L 357.632389790266 231.563387837343 L 152.996304826371 300.583031963907 L 327.010436689937 172.015689777846 L 200.459438528304 347.988635917994 L 267.207791154406 141.354282534532 L 266.89705236783 358.89687608595 L 200.498492943647 151.319906773707 L 327.465473276699 328.939600011763 L 151.916370704359 198.461260549028 L 359.347135203182 269.084130131005 L 139.860689462533 265.32228032414 L 350.346229237428 201.620311309088 L 169.128710671146 326.905101016049 L 303.55201023566 151.860190545733 L 229.013292766424 360.016172081618 L 236.287387246721 138.641101606209 L 297.217635873507 352.001249318412 L 173.697011140852 167.195326876071 L 348.156727526731 305.579644126632 L 139.347822399737 227.08503562473 L 362.554849472939 237.931617336027 L 146.355701042926 296.015424519358 L 334.73891412018 174.341051859462 L 192.37909892322 348.133948046025 L 274.868329519175 138.745489138976 L 260.389939285818 363.726378477629 L 205.226852513798 144.725476661355 L 324.972806240069 336.673169576802 L 151.928950840908 190.324969067163 L 361.822540845738 276.846216843407 L 135.127294689979 258.677647996838 L 356.891067667593 206.509085398419 L 161.39340841285 324.244406707226 L 311.741273681354 152.032377163656 L 221.151973088889 362.355646690924 L 243.068109754452 134.006944614672 L 292.168852684417 358.493077490133 L 176.52639061976 159.461672620707 L 347.823275076939 313.818859698537 L 137.14678204043 219.126853154079 L 367.086659944275 244.846936533119 L 139.920300982513 290.807105560423 L 342.467519619252 177.339709500559 L 184.092989995582 347.637626109393 L 282.920950512611 136.685345090115 L 253.341580992263 368.15275636426 L 210.594165928465 138.34992055029 L 321.804342815397 344.393306716361 L 152.58968941213 181.995063479371 L 363.739368761004 284.990798702636 L 130.809411530906 251.497871954129 L 363.203367299863 212.03478392038 L 153.685176868967 320.905675691286 L 320.111842332234 152.859022216266 L 212.91796067503 364.126781955426 L 250.377618815779 129.800593162737 L 286.485446463806 364.738712718667 L 180.035784800327 151.768800315308 L 346.829291772412 322.226921953335 L 135.523671581862 210.805992398038 L 371.178469108554 252.284430893494 L 133.744732180748 284.966737112203 L 350.141563871596 181.020095786156 L 175.650638403868 346.474931615667 L 291.326026269895 135.212546187574 L 245.77791162407 372.127040288979 L 216.590683092652 132.247812997871 L 317.95270249314 352.045040172851 L 153.92240846118 173.521660556079 L 365.059615792081 293.477405784828 L 126.955606946138 243.809900000272 L 369.228627280159 218.186568294368 L 146.059249627955 316.882586762895 L 328.61302592727 154.363018896672 L 204.35255546711 365.292284250147 L 258.187959265524 126.070191950983 L 280.179344310983 370.683748603361 L 184.230449211617 144.172186127208 L 345.152825374249 330.752584003843 L 134.515058436078 202.16457095439 L 374.782574189863 260.215144568307 L 127.883285816374 278.507334442113 L 357.705348017911 185.386394557024 L 167.103830558434 344.624865082679 L 300.040634219966 134.362917163811 L 237.728880667009 375.601988958438 L 223.202301305839 126.473309180983 L 313.414778770676 359.572468410026 L 155.947143216702 164.957068895172 L 365.748216132716 302.262323542816 L 123.612641301851 235.644667844127 L 374.912849217707 224.949249505965 L 138.571710766269 312.173116042578 L 337.192011244161 156.563426993505 L 195.500250679693 365.817862715661 L 266.467216951656 122.862001093823 L 273.266820049745 376.274364321397 L 189.11132019256 136.72807642091 L 342.775802405574 339.342545788678 L 134.154442726874 193.247847088599 L 377.853234523464 268.606193105739 L 122.389584371975 271.446254293997 L 365.102483766218 190.438450063423 L 158.506335358306 342.070349898505 L 309.018764966112 134.169151855497 L 229.228334367747 378.53240022213 L 230.410583178626 121.07981248618 L 308.191823662446 366.919081671209 L 158.679963195637 156.355508020761 L 365.773297541629 311.298805668116 L 120.825159309765 227.036974662462 L 380.202869554413 232.303312180058 L 131.279170947151 306.779615611627 L 345.794146551166 159.475299025438 L 186.408515018608 365.672481765809 L 275.179648988726 120.220089086159 L 265.768463996596 381.457656845039 L 194.67494216842 129.493162119603 L 339.684196918495 347.941741985145 L 134.472008579706 184.103997098515 L 380.346976456158 277.420899488123 L 117.316249680345 263.80515849643 L 372.276220662146 196.171700188635 L 149.91361290674 338.798395923677 L 318.211549710535 134.660568381463 L 220.313873947563 380.875413733821 L 238.192799183568 116.119642931159 L 302.289508496619 374.028090774558 L 162.132813829412 147.772813819105 L 365.106422187821 320.537306236622 L 118.635389709928 218.025335602425 L 385.046690656454 240.224963287029 L 124.238437207831 300.708868298073 L 354.363239358333 163.109527158409 L 177.127555882877 364.828597868287 L 284.285836928628 118.186034935203 L 257.709128103368 386.181971434863 L 200.913418905579 122.524247182216 L 335.86817822458 356.493642854359 L 135.494391492523 174.783873934293 L 382.2228886614 286.618952934716 L 112.714573141337 255.609952961886 L 379.16977881316 202.577133771152 L 141.382510667739 334.800241810717 L 327.567506143568 135.862880750092 L 211.026691210631 382.590803610237 L 246.521994790615 111.643708203192 L 295.717960499461 380.842760929941 L 166.313379613545 139.26613179206 L 363.72281072209 329.925730033999 L 117.082855371262 208.651811844494 L 389.393808842987 248.686205402404 L 117.506178159369 293.972118143923 L 362.841865969822 167.472711879956 L 167.710064679086 363.262379212516 L 293.74286219568 116.79864112206 L 249.117846587271 390.397228624202 L 207.814389182445 115.877912930234 L 331.32223664188 364.940566500962 L 137.244463153304 165.340748229073 L 383.442906215397 296.156589787254 L 108.63418989261 246.890702220543 L 385.726685324855 209.641272434232 L 132.970948597343 330.071475119385 L 337.03280161871 137.797988242642 L 201.411382257874 383.64125944449 L 255.367082012156 107.701179095978 L 288.491774790106 387.306748827244 L 171.224969674228 130.89359968006 L 361.601548249404 339.409699855978 L 116.204095440201 198.961818968294 L 393.195537572539 257.654934311375 L 111.138586357322 286.585076208161 L 371.171691268656 172.567053297104 L 158.210945476207 360.953906959729 L 303.504503016163 116.093659011258 L 240.027732286858 394.055245918562 L 215.361027192323 109.610179988615 L 326.045286418407 373.224000963864 L 139.741134987967 155.830032992157 L 383.972081829144 305.98679567867 L 105.122758707273 237.681519760581 L 391.891112677725 217.346177205767 L 124.737594850229 324.612129416701 L 346.551532337205 140.48378383391 L 191.515740135939 383.9926540828 L 264.692955054158 104.339171113932 L 280.630001533017 393.364441219179 L 176.866426536115 122.71402106908 L 358.725770961868 348.932839485923 L 116.032401115148 189.003914477834 L 396.405324022842 267.095060624827 L 105.191039625373 278.567901484351 L 379.29379710448 178.39026581319 L 148.687028322583 357.887356858396 L 313.521451955471 116.103528271023 L 230.47584911074 397.110052450719 L 223.532067866673 103.776169628252 L 320.040745106228 381.284934493507 L 142.999181633242 146.308993307789 L 383.778842688368 316.059528070982 L 102.225649371861 228.020434571363 L 397.608217253494 225.669480086826 L 116.741533718548 318.426757663323 L 356.066017177972 143.933982822008 L 181.390527363029 383.614296632047 L 274.460629645302 101.602433991135 L 272.156108122939 398.961293203451 L 183.23205875933 114.786531652788 L 355.082832285465 358.437070962217 L 116.597566563003 178.829565456661 L 398.979057323588 276.966654945972 L 99.717763129871 269.945156838452 L 387.149017600924 184.935516822913 L 139.196768631984 354.051160101202 L 323.7415530665 116.857131804439 L 220.5030610691 399.518194858374 L 232.301857182138 98.4297663101407 L 313.316588775816 389.064192320648 L 147.029085432998 136.836442468279 L 382.83523141842 326.321958137974 L 99.9856392699665 217.949234412274 L 402.824476208324 234.584440598818 L 109.041927510746 311.524481307154 L 365.51710472307 148.157972740135 L 171.089229382422 382.479169232525 L 284.62740549056 99.5330508417468 L 263.097916403222 404.044164400649 L 190.31159799544 107.170259868114 L 350.664447491219 367.862924667971 L 117.925656425456 168.492897430019 L 400.875366734242 287.226116004869 L 94.771494010194 260.745740001171 L 394.678279653555 192.191389945028 L 129.799934126979 349.438142400799 L 334.110057545093 118.379567620521 L 210.153858503186 401.239032686063 L 241.640427383747 93.6232832366864 L 305.885382582298 396.502778177174 L 151.836902955274 127.472426047898 L 381.117129764023 336.71873086274 L 98.4426208596728 207.513286451938 L 407.488020888155 244.060027211165 L 101.697674118584 303.91901462529 L 374.844491955329 153.160685522792 L 160.667790099555 380.564146205238 L 295.147051175203 98.1701486196354 L 253.487515048275 408.561651223706 L 198.09018089076 99.9239836614592 L 345.466815826872 377.149860699405 L 120.038791285806 158.050425615201 L 402.055908100462 297.826361054797 L 90.4031503673607 251.00278977693 L 401.822946852285 200.141873189134 L 120.557280900021 344.045640366813 L 344.569896686834 120.691938995894 L 199.476162247304 402.235021656448 L 251.513596932314 89.4071327103022 L 297.764286317597 403.542218795257 L 157.424154420996 118.277895494596 L 378.60446365362 347.192242120267 L 97.633321687622 196.761336041817 L 411.548964988183 254.061023423571 L 94.767062054025 295.628663980672 L 383.987053032442 158.9424927879 L 150.18433075696 377.850194264866 L 305.970010723484 97.5496215169898 L 243.361147368316 412.464413444098 L 206.548356138589 93.1057851744012 L 339.490719333709 386.236599903019 L 122.95495238423 147.560769837397 L 402.485636972383 308.717037707353 L 86.6615064021692 240.753567758785 L 408.525165033867 208.766372328096 L 111.53022021769 337.875594376588 L 355.061970843727 123.811164192581 L 188.521106576736 402.471983208231 L 261.883094851851 85.8295030867546 L 288.975034709537 410.124909584332 L 163.787736821815 109.314372881607 L 375.281388405711 357.682931419689 L 97.5910385281022 185.745284507224 L 414.959725674111 264.548158148787 L 88.307424761062 286.676301784673 L 392.883176482649 165.49912498543 L 139.698853493959 374.322552577772 L 317.043630902749 97.7038688758775 L 232.759074921319 415.705493277777 L 215.662116857111 86.7727051585266 L 332.741597628241 395.061462911161 L 126.687806777667 137.084354482216 L 402.133066826413 319.844756266954 L 83.5928754740917 230.039315968163 L 414.728207650082 218.039749619385 L 102.780477752659 330.934617249139 L 365.525452988758 127.749806905092 L 177.342801907373 401.919358757628 L 272.706709029209 82.9360440877122 L 279.543892355072 416.194459668522 L 170.919861389891 100.643608515049 L 371.136452927322 368.129588893667 L 98.3453871737431 174.519946949422 L 417.675335907555 275.478259914846 L 82.3747960236909 277.089315087332 L 401.47110911201 172.821615044252 L 129.272931026844 369.970891541035 L 328.312408249881 98.6615491221616 L 221.72541744558 418.240625240675 L 225.402958340059 80.9803989426696 L 325.229598045409 403.562715455042 L 131.24655404484 126.683094939198 L 400.970510897825 331.153341516229 L 81.2408028227864 218.905090961665 L 420.376819126989 227.932387891547 L 94.3697469758774 323.234038149262 L 375.898105412459 132.515928511336 L 165.998078325015 400.550447209265 L 283.938457890593 80.7695622058241 L 269.501583306203 421.69603445785 L 178.808015961295 92.3272331420774 L 366.162741856204 378.46967503831 L 99.922069334118 163.142791162468 L 419.65374625145 286.804434282416 L 77.0235682965447 266.899528843724 L 409.689304868994 180.896267029505 L 118.969383963487 364.789449258597 L 339.718254691459 100.447351159806 L 210.307969748172 420.028535059525 L 235.737961097851 75.7827957796545 L 316.969600663958 411.678918189447 L 136.635795533011 116.420072070813 L 398.974306206221 342.584102795108 L 79.6457696563317 207.399575072349 L 425.417554388214 238.410279880088 L 86.3593384836741 314.789921272519 L 386.116608000005 138.11296309861 L 154.546211124829 398.342624317403 L 295.528784758556 79.3697278956367 L 258.883195454269 426.57669392794 L 187.434952651032 84.4264065431284 L 360.357994702556 388.639651634122 L 102.342658020646 151.673658872141 L 420.856114473709 298.476263747806 L 72.3061557824869 256.143104036411 L 417.476776873829 189.704650196275 L 108.85194734067 358.77714479834 L 351.200780524163 103.081784583054 L 198.557996307779 421.031225968036 L 246.62989897883 71.2317633943124 L 307.98121785748 419.349279230127 L 142.855427036053 106.359196311168 L 396.1250184365 354.076121117827 L 78.8449102634945 195.574865573995 L 429.799112723294 249.435142569958 L 78.8098270668837 305.623058987525 L 396.11689646595 144.539616124543 L 143.04862964297 395.277542582304 L 307.424774070069 78.772796194642 L 247.728059989114 430.78572479205 L 196.778701132893 77.0014643215206 L 353.724701157755 398.575322209762 L 105.62440271203 140.174470601131 L 421.247081318148 310.440029285363 L 68.2726640691819 244.860410961214 L 424.773450793179 199.223618700776 L 98.9849280379768 351.937667426251 L 362.697593427613 106.58098997823 L 186.530004469124 421.214250771688 L 258.03737202843 67.3767795408355 L 298.288768143693 426.514007577769 L 149.900555678224 96.5648630643176 L 392.407626426826 365.566551975378 L 78.8717437526495 183.486242673104 L 433.472664198136 260.964556171495 L 71.780698352346 295.758939238388 L 405.83450886401 151.7897874602 L 131.568610754277 391.341310455677 L 319.570388522002 79.0113423618465 L 236.079606338482 434.274964768165 L 206.812607686577 70.1115647264492 L 346.270171853388 408.21218035069 L 109.780055501327 128.70891555935 L 420.795030871118 322.638952564956 L 64.9705681160701 233.095878114787 L 431.520517720602 209.425357100219 L 89.4328547788625 344.279541129209 L 374.144612089731 110.95657049292 L 174.28149721954 420.546968125163 L 269.914963618606 64.2646123538393 L 287.921224231718 433.11466558626 L 157.761441662081 87.1016011259095 L 387.811685110393 376.990942381864 L 79.755921956051 171.191917350022 L 436.392166830258 272.952127228673 L 65.3299968630212 285.227687142193 L 415.204938634068 159.852519442228 L 120.170958499875 386.524649727289 L 331.906726096034 80.1140140558108 L 223.985193118805 436.999117171537 L 217.505400047173 63.814337356751 L 338.006583972307 417.485764104073 L 114.817719328837 117.342128041556 L 419.472334019103 335.013457770623 L 62.4444003528546 220.897817246816 L 437.660784713069 220.277451642311 L 80.2601224809075 335.816163860915 L 385.47639294062 116.215445750271 L 161.872706651657 419.002781536563 L 282.213421251158 61.9390112455657 L 276.91213530015 439.094518623852 L 166.423465416318 78.0337159005212 L 382.331465858074 388.283560642085 L 81.5229949674802 158.75276017724 L 438.514672785801 285.347675234197 L 59.5139773476328 274.063980844446 L 424.163992404509 168.711970440157 L 108.921671386843 380.823030066262 L 344.372295806639 82.1053015006604 L 211.495915756908 438.9160540997 L 228.821277959389 58.1655355971547 L 328.951001239136 426.332014686324 L 120.740719299524 106.140351895343 L 417.25557356857 347.50145183662 L 60.7354506120251 208.318225266109 L 443.139021132991 231.742987216141 L 71.5306327565653 326.565821067419 L 396.626468415059 122.35972908158 L 149.366309319201 416.559359688855 L 294.879860316547 60.4404100606693 L 265.299523667024 444.398880077953 L 175.867120554101 69.4249292259317 L 375.966073277899 399.377737240015 L 84.1941957017363 146.232012349637 L 439.800621898651 298.097441999398 L 54.3867612280609 262.306941827779 L 432.648150729515 178.347414316801 L 97.8875989769857 374.236779799758 L 356.903310914253 85.0053270085047 L 198.666391562168 439.987106522394 L 240.720029210139 53.2186946324948 L 319.125367941813 434.687637666707 L 127.547497975385 95.1705946923788 L 414.125749681146 360.038621817986 L 59.8814795701519 195.412563812124 L 447.902298952412 243.780669702441 L 63.3074323995315 316.551673177648 L 407.52769509168 129.386628937325 L 136.827124794904 413.198836753856 L 307.857989965388 59.8056441500824 L 253.12575614508 448.97544986385 L 186.068032926338 61.3380176450691 L 368.719537637862 410.206215182346 L 87.7862447791181 133.694980258203 L 440.214120863778 311.144322909163 L 50 250.000000000055" fill="transparent" stroke="#4488ff"><animateTransform attributeName="transform" from="0 250 250" to="360 250 250" dur="10s" repeatCount="indefinite" attributeType="xml" type="rotate" /></path></svg>

