<?xml version="1.0" encoding="utf-8"?>
<svg viewBox="0 0 100 100" xmlns:xlink="http://www.w3.org/1999/xlink" xmlns="http://www.w3.org/2000/svg">
  <defs>
    <marker markerHeight="5" markerWidth="5" viewBox="0 0 10 10" refX="5" refY="5" id="marker1">
      <path fill="#4488ff" d="M 5 10 L 9.33012701892219 7.5 L 9.33012701892219 2.5 L 5 0 L 0.66987298107781 2.5 L 0.669872981077805 7.5 L 5 10 M 7.5 9.33012701892219 L 10 5 L 7.5 0.669872981077805 L 2.5 0.669872981077805 L 0 5 L 2.5 9.33012701892219 L 7.5 9.33012701892219">
        <animateTransform attributeName="transform" from="360 5 5" to="0 5 5" dur="8s" repeatCount="indefinite" attributeType="xml" type="rotate" />
      </path>
    </marker>
    <marker markerHeight="2.5" markerWidth="2.5" viewBox="0 0 10 10" refX="5" refY="5" id="marker2">
      <path fill="#4488ff" d="M 5 10 L 9.75528258147577 6.54508497187473 L 7.93892626146237 0.954915028125265 L 2.06107373853763 0.95491502812526 L 0.24471741852423 6.54508497187473 L 5 10 M 7.93892626146237 9.04508497187474 L 9.75528258147577 3.45491502812526 L 5 0 L 0.24471741852423 3.45491502812526 L 2.06107373853763 9.04508497187473 L 7.93892626146237 9.04508497187474">
        <animateTransform attributeName="transform" from="0 5 5" to="360 5 5" dur="8s" repeatCount="indefinite" attributeType="xml" type="rotate" />
      </path>
    </marker>
  </defs>
  <path stroke="#4488ff" fill="transparent" marker-start="url(#marker1)" stroke-width="1.1" marker-end="url(#marker1)" marker-mid="url(#marker1)" d="M 50 100 L 95.4815997677259 70.7707506500943 L 87.7874787177129 17.2569633027357 L 35.9133721579285 2.0253513192751 L 0.50892790595335 42.8842580863357 L 22.9679591272202 92.0626766415591 L 77.0320408727799 92.0626766415591 L 99.4910720940466 42.8842580863357 L 64.0866278420715 2.02535131927515 L 12.2125212822871 17.2569633027357 L 4.5184002322741 70.7707506500943 L 50 100">
    <animateTransform attributeName="transform" from="0 50 50" to="360 50 50" dur="8s" repeatCount="indefinite" attributeType="xml" type="rotate" />
  </path>
  <path stroke="#4488ff" fill="transparent" marker-start="url(#marker2)" stroke-width="1" marker-end="url(#marker2)" marker-mid="url(#marker2)" d="M 50 80 L 79.5442325903662 55.2094453300079 L 60.2606042997701 21.8092213764228 L 24.0192378864669 35 L 30.7163717094038 72.9813332935693 L 69.2836282905962 72.9813332935693 L 75.9807621135332 35 L 39.7393957002299 21.8092213764228 L 20.4557674096338 55.2094453300079 L 50 80">
    <animateTransform attributeName="transform" from="360 50 50" to="0 50 50" dur="4s" repeatCount="indefinite" attributeType="xml" type="rotate" />
  </path>
  <path stroke="#4488ff" fill="transparent" stroke-width=".5" d="M 50 60 L 59.7492791218182 47.7747906604369 L 45.6611626088244 40.9903113209758 L 42.1816851753197 56.2348980185873 L 57.8183148246803 56.2348980185873 L 54.3388373911756 40.9903113209758 L 40.2507208781818 47.7747906604369 L 50 60">
    <animateTransform attributeName="transform" from="0 50 50" to="360 50 50" dur="2s" repeatCount="indefinite" attributeType="xml" type="rotate" />
  </path>
  <path stroke="#4488ff" fill="transparent" stroke-width=".25" d="M 50 55 L 52.9389262614624 45.9549150281253 L 45.2447174185242 51.5450849718747 L 54.7552825814758 51.5450849718747 L 47.0610737385376 45.9549150281253 L 50 55">
    <animateTransform attributeName="transform" from="360 50 50" to="0 50 50" dur="1s" repeatCount="indefinite" attributeType="xml" type="rotate" />
  </path>
</svg>