<svg viewBox='0 0 500 500' xmlns:xlink="http://www.w3.org/1999/xlink" xmlns="http://www.w3.org/2000/svg"><path stroke="#4488ff" d="M 250 250 L 250 250 L 250.199777974992 250.009421290142 L 250.398224785841 250.037643325327 L 250.59401419463 250.084540739163 L 250.785829800583 250.149905051669 L 250.972369920398 250.233445363856 L 251.152352422812 250.334789327247 L 251.324519502359 250.453484385477 L 251.487642377421 250.588999284295 L 251.640525897944 250.740725845489 L 251.782013048377 250.907980999479 L 251.910989331764 251.090009070551 L 252.026387021205 251.28598430795 L 252.127189265305 251.495013655313 L 252.212434034652 251.716139750228 L 252.2812178968 251.948344144991 L 252.332699607749 252.190550738972 L 252.366103508414 252.441629412395 L 252.380722715165 252.70039985067 L 252.375922094076 252.965635547886 L 252.35114100917 253.2360679775 L 252.305895835592 253.510390917747 L 252.239782229302 253.787264918817 L 252.152477145599 254.065321898408 L 252.043740599512 254.343169851837 L 251.913417161825 254.619397662556 L 251.761437185276 254.892579998562 L 251.587817756254 255.161282279911 L 251.392663368123 255.42406570232 L 251.176166313068 255.679492301606 L 250.938606790241 255.926130043571 L 250.680352728764 256.162557923822 L 250.401859324988 256.387371061941 L 250.103668294258 256.599185774379 L 249.786406838269 256.796644610487 L 249.450786329905 256.978421336132 L 249.097600718337 257.143225849464 L 248.727724657932 257.289809013545 L 248.342111365386 257.416967390734 L 247.94179021027 257.523547863971 L 247.527864045 257.608452130361 L 247.10150628101 257.670641052805 L 246.663957718668 257.709138855745 L 246.216523139239 257.723037151541 L 245.760567667905 257.711498784386 L 245.297512917556 257.673761479187 L 244.82883292376 257.609141283326 L 244.356049881937 257.517035789779 L 243.880729698413 257.396927130648 L 243.404477367604 257.24838473079 L 242.928932188135 257.071067811865 L 242.455762831218 256.8647276378 L 241.986662275132 256.629209493386 L 241.523342620037 256.364454388454 L 241.067529797835 256.070500480803 L 240.620958192105 255.747484211875 L 240.185365183509 255.395641149939 L 239.762485636329 255.015306536357 L 239.354046342066 254.606915531363 L 238.961760436208 254.171003156595 L 238.587321804458 253.708203932499 L 238.232399494815 253.219251209578 L 237.89863215196 252.704976193317 L 237.58762249045 252.166306663521 L 237.300931823175 251.604265389623 L 237.040074661469 251.019968244462 L 236.806513403172 250.414622019831 L 236.601653124746 249.789521948022 L 236.426836493376 249.146048934401 L 236.283338814719 248.485666506944 L 236.172363231668 247.809917489437 L 236.095036089171 247.120420405938 L 236.052402479748 246.418865624826 L 236.045421983944 245.707011251608 L 236.074964619477 244.98667878037 L 236.141807012331 244.259748514524 L 236.246628802517 243.528154768211 L 236.390009296634 242.793880860387 L 236.572424378738 242.058953914294 L 236.794243690381 241.32543947563 L 237.055728090001 240.59543596332 L 237.357027401119 239.871068967362 L 237.69817845806 239.154485408692 L 238.079103457131 238.447847576568 L 238.499608620398 237.75332705932 L 238.959383178387 237.073098584799 L 239.457998677169 236.409333787138 L 239.994908614447 235.764194916805 L 240.56944840837 235.139828511165 L 241.180835701903 234.538359043 L 241.828171004688 233.961882564609 L 242.510438673387 233.412460365235 L 243.226508230602 232.892112659656 L 243.975136021514 232.402812325808 L 244.754967206462 231.946478709273 L 245.564538086738 231.524971512444 L 246.402278759954 231.140084786009 L 247.266516100411 230.793541040299 L 248.155477058957 230.48698549378 L 249.067292275949 230.221980475753 L 250 230 L 250.951550304335 229.822424525768 L 251.919809591698 229.690535922097 L 252.902565377914 229.605512651039 L 253.897531343383 229.568425184843 L 254.902352640974 229.580231671649 L 255.914611448032 229.641773863649 L 256.93183274944 229.753773321091 L 257.951490337989 229.916827904814 L 258.971013017591 230.131408569347 L 259.98779099427 230.397856467856 L 260.999182439199 230.716380379472 L 262.00252020753 231.087054468755 L 262.995118696178 231.509816386194 L 263.974280823288 231.984465717834 L 264.937305111594 232.510662791199 L 265.881492857546 233.087927843823 L 266.804155367659 233.71564055974 L 267.702621243279 234.393039978362 L 268.574243694652 235.11922477921 L 269.416407864999 235.893153944981 L 270.226538145112 236.713647804445 L 271.002105458896 237.579389455691 L 271.740634500182 238.48892656919 L 272.439710901157 239.440673569186 L 273.096988312782 240.432914190873 L 273.710195377646 241.463804409819 L 274.277142575878 242.531375739099 L 274.795728924893 243.63353888858 L 275.263948514042 244.768087779802 L 275.679896855474 245.932703908954 L 276.041777032926 247.124961049415 L 276.347905630506 248.342330284426 L 276.596718424012 249.582185359506 L 276.786775817802 250.841808343294 L 276.916768010794 252.118395584652 L 276.985519875754 253.409063952949 L 276.991995536641 254.710857347656 L 276.935302629509 256.020753462545 L 276.814696233127 257.335670789037 L 276.629582456264 258.652475842499 L 276.379521669402 259.967990594575 L 276.064231369425 261.279000094028 L 275.683588666754 262.582260257879 L 275.237632385263 263.874505814129 L 274.726564766269 265.152458376763 L 274.150752768817 266.412834633282 L 273.51072895952 267.652354624581 L 272.807191986163 268.867750096561 L 272.041006630363 270.055772902591 L 271.213203435596 271.213203435596 L 270.324977907995 272.336859068354 L 269.37768928836 273.423602580384 L 268.372858894972 274.470350549705 L 267.312168037846 275.474081687657 L 266.197455506194 276.431845094977 L 265.030714631974 277.340768417369 L 263.814089933476 278.198065878883 L 262.549873344059 279.001046171614 L 261.24050003218 279.74712018039 L 259.888543819998 280.433808521445 L 258.496712208885 281.058748874341 L 257.067841021248 281.619703086815 L 255.604888669109 282.114564032646 L 254.110930060909 282.541362203115 L 252.589150159019 282.898272013193 L 251.042837201394 283.183617804142 L 249.475375601785 283.395879524887 L 247.890238543815 283.53369807519 L 246.290980285123 283.595880294385 L 244.681228188632 283.581403580235 L 243.064674498807 283.489420123264 L 241.445067881529 283.319260742825 L 239.826204746962 283.070438312022 L 238.211920375464 282.742650759607 L 236.606079867222 282.335783637895 L 235.012568936909 281.849912246804 L 233.435284575176 281.28530330514 L 231.878125599287 280.64241616134 L 230.344983115667 279.921903536984 L 228.839730917471 279.124611797498 L 227.366215840647 278.251580745648 L 225.928248102219 277.304042934549 L 224.529591644721 276.283422498133 L 223.173954510892 275.191333498176 L 221.864979272799 274.029577788217 L 220.606233539624 272.800142395891 L 219.401200568304 271.505196426419 L 218.253270001124 270.14708749121 L 217.165728754236 268.728337666745 L 216.141752080842 267.251638990103 L 215.184394832526 265.719848498715 L 214.296582941891 264.135982823092 L 213.481105149257 262.503212342449 L 212.740604995735 260.824854914322 L 212.077573104491 259.10436919038 L 211.494339771435 257.34534753176 L 210.993067885968 255.551508538341 L 210.575746201718 253.726689207413 L 210.244182976514 251.874836738244 L 210 250 L 209.844627026529 248.106320681472 L 209.779296630036 246.198024141932 L 209.805039496708 244.279409983334 L 209.922680170269 242.354842364902 L 210.132833263695 240.428740081908 L 210.43590015011 238.505566431184 L 210.83206614454 236.589818886597 L 211.321298187049 234.686018608317 L 211.903343036638 232.798699810306 L 212.577725984089 230.932399010939 L 213.343750090708 229.091644192152 L 214.200495958714 227.280943892891 L 215.146822037694 225.504776262956 L 216.18136547032 223.767578103653 L 217.302543479199 222.073733921802 L 218.508555295395 220.427565023881 L 219.797384627894 218.833318677078 L 221.166802671889 217.295157364112 L 222.614371652496 215.817148158581 L 224.137448899131 214.403252247502 L 225.733191444483 213.057314627522 L 227.398561140683 211.783054001025 L 229.130330283978 210.584052898044 L 230.925087737885 209.463748049522 L 232.779245543571 208.425421036992 L 234.689046004913 207.472189243269 L 236.650569234453 206.606997128156 L 238.659741145283 205.832607852534 L 240.712341872672 205.151595273523 L 242.804014608149 204.566336332624 L 244.930274827594 204.079003857971 L 247.08651989384 203.691559800928 L 249.268039013269 203.405748926355 L 251.470023524856 203.223092974884 L 253.687577499209 203.144885314543 L 255.915728624235 203.172186097957 L 258.149439353244 203.305817940264 L 260.383618290475 203.546362131716 L 262.613131788345 203.894155397717 L 264.832815729997 204.349287217833 L 267.03748747016 204.911597714 L 269.221957906723 205.580676116895 L 271.381043654997 206.355859818034 L 273.509579296164 207.236234013859 L 275.602429671081 208.220631946649 L 277.654502190325 209.307635745692 L 279.660759131099 210.495577870738 L 281.616229891535 211.782543158321 L 283.516023172787 213.166371470065 L 285.355339059327 214.644660940673 L 287.129480967926 216.214771821809 L 288.8338674359 217.873830916666 L 290.464043719447 219.61873659851 L 292.015693173148 221.446164405112 L 293.484648382059 223.352573199487 L 294.866902018246 225.334211885992 L 296.158617394096 227.387126669406 L 297.356138685293 229.507168843245 L 298.456000796987 231.690003092234 L 299.454938847348 233.931116292503 L 300.349897243497 236.225826791807 L 301.13803832559 238.569294150821 L 301.816750555741 240.956529325303 L 302.383656229404 243.382405267805 L 302.836618687856 245.841667926424 L 303.173749011457 248.328947617043 L 303.393412174521 250.838770744451 L 303.494232643755 253.365571846771 L 303.475099403489 255.903705936698 L 303.335170392137 258.447461112172 L 303.0738763357 260.991071408323 L 302.690923965398 263.528729861768 L 302.186298607989 266.054601757684 L 301.560266138692 268.562838029442 L 300.813374288121 271.04758878008 L 299.946453296124 273.503016894392 L 298.960615906914 275.923311710036 L 297.857256701419 278.302702715721 L 296.638050764349 280.635473244296 L 295.304951684997 282.915974128378 L 293.860188892414 285.138637286067 L 292.306264327158 287.297989204254 L 290.645948453396 289.388664287125 L 288.88227561675 291.405418037536 L 287.01853875482 293.343140039202 L 285.05828346895 295.196866707889 L 283.005301467284 296.961793780196 L 280.86362339079 298.633288508916 L 278.637511035393 300.206901534527 L 276.331448984894 301.678378402925 L 273.950135670817 303.043670700183 L 271.498473876785 304.298946775874 L 268.981560706412 305.440602027294 L 266.404677035107 306.465268717804 L 263.773276467499 307.369825303463 L 261.092973823475 308.151405243138 L 258.369533177092 308.807405268364 L 255.608855473784 309.335493090344 L 252.816965752437 309.733614522726 L 250 310 L 247.16419166728 310.133170472711 L 244.315857875562 310.131942662026 L 241.461385344583 309.995433657623 L 238.607216073188 309.723064844304 L 235.75983280479 309.314565144258 L 232.925744310399 308.769973563429 L 230.111470522634 308.089641032011 L 227.323527554624 307.274231530716 L 224.568412638204 306.324722496071 L 221.852589016148 305.242404499679 L 219.182470823504 304.028880198056 L 216.564407993311 302.686062551326 L 214.004671222091 301.216172310807 L 211.509437030593 299.621734777193 L 209.084772955199 297.905575832802 L 206.736622905307 296.070817253033 L 204.470792721814 294.120871303953 L 202.292935971503 292.059434634584 L 200.208540011815 289.890481474218 L 198.222912360003 287.618256146718 L 196.341167400157 285.24726491548 L 194.568213460946 282.782267174324 L 192.90874029627 280.228266001233 L 191.367207000202 277.590498093417 L 189.947830386766 274.874423103731 L 188.654573864185 272.085712399993 L 187.491136832189 269.230237270193 L 186.460944629962 266.314056598015 L 185.567139061088 263.343404034459 L 184.812569520721 260.324674692655 L 184.199784748867 257.264411394227 L 183.731025232363 254.169290496747 L 183.408216276721 251.046107332967 L 183.232961767569 247.901761293581 L 183.20653863988 244.743240586235 L 183.329892071667 241.577606704479 L 183.603631417168 238.411978641168 L 184.028026892941 235.253516881594 L 184.603007028561 232.109407212348 L 185.328156891929 228.986844382504 L 186.202717097403 225.893015654255 L 187.225583603216 222.835084280581 L 188.395308302822 219.820172947884 L 189.710100412982 216.855347221802 L 191.167828659568 213.9475990346 L 192.7660242602 211.103830252633 L 194.501884700996 208.330836362384 L 196.372278302805 205.635290313491 L 198.373749570493 203.023726557018 L 200.502525316942 200.502525316942 L 202.754521551614 198.077897132502 L 205.125351121692 195.755867708585 L 207.610332091992 193.542263110812 L 210.204496848069 191.442695341361 L 212.902601905168 189.46254833086 L 215.699138403958 187.606964380877 L 218.588343272288 185.880831090692 L 221.56421103055 184.288768801027 L 224.620506216649 182.835118586416 L 227.750776405004 181.523930826749 L 230.9483657925 180.358954387347 L 234.20642932289 179.343626435635 L 237.517947319715 178.481062921163 L 240.875740596519 177.774049744306 L 244.272486011867 177.225034637482 L 247.700732435481 176.836119781228 L 251.152917090688 176.609055175846 L 254.621382237357 176.545232787679 L 258.098392158519 176.645681487408 L 261.576150412977 176.91106279596 L 265.046817315453 177.341667451865 L 268.502527605065 177.93741281203 L 271.93540826233 178.697841096045 L 275.337596434348 179.622118482224 L 278.701257427382 180.709035061653 L 282.018602725693 181.957005654555 L 285.281907995247 183.364071491312 L 288.483531030728 184.927902758502 L 291.615929604258 186.645802008285 L 294.671679174228 188.514708427504 L 297.643490412781 190.531202960819 L 300.524226510727 192.691514280233 L 303.306920218971 194.99152559134 L 305.984790585964 197.426782264676 L 308.551259351202 199.992500278576 L 310.999966955403 202.68357545799 L 313.324788128697 205.49459349185 L 315.519847018956 208.41984070963 L 317.579531823291 211.453315595959 L 319.498508886693 214.588741020315 L 321.271736232892 217.81957715708 L 322.894476493639 221.139035069521 L 324.362309203845 224.540090929625 L 325.671142431343 228.015500844109 L 326.817223711416 231.557816255383 L 327.797150257712 235.15939988481 L 328.607878422695 238.812442184156 L 329.246732382405 242.508978259846 L 329.711412021965 246.24090523337 L 330 250 L 330.11096797195 253.777937346913 L 330.043181954088 257.566308390808 L 329.795906811955 261.356639294169 L 329.368809858878 265.140410218526 L 328.761963552212 268.909074472328 L 327.975847276968 272.654077810385 L 327.011348208562 276.366877841329 L 325.869761248481 280.038963499069 L 324.552788028779 283.661874533898 L 323.062534983446 287.227220978643 L 321.401510486819 290.726702545144 L 319.572621061366 294.152127906269 L 317.579166659307 297.495433818775 L 315.424835024707 300.748704042466 L 313.113695144803 303.904188011405 L 310.650189801462 306.954319213267 L 308.039127235799 309.89173323345 L 305.285671941057 312.709285421106 L 302.395334600932 315.400068134952 L 299.373961192568 317.957427527495 L 296.227721275443 320.374979827208 L 292.963095489331 322.646627079133 L 289.586862286445 324.766572305503 L 286.106083924718 326.729334049118 L 282.528091751033 328.529760263459 L 278.860470804899 330.1630415149 L 275.111043774839 331.624723463777 L 271.287854341312 332.910718592611 L 267.399149941589 334.017317151347 L 263.45336399346 334.941197291182 L 259.459097616048 335.679434360236 L 255.425100887333 336.229509336203 L 251.360253679204 336.589316372912 L 247.273546112019 336.757169439745 L 243.174058671678 336.731808034782 L 239.070942033193 336.512401954623 L 234.97339663558 336.098555105927 L 230.890652053663 335.490308345834 L 226.831946213041 334.688141340595 L 222.806504495005 333.692973433974 L 218.82351877867 332.506163519194 L 214.892126467886 331.129508910464 L 211.021389550766 329.565243212391 L 207.220273739768 327.816033187895 L 203.497627740281 325.884974627514 L 199.86216269559 323.775587225291 L 196.322431855866 321.491808468746 L 192.886810518518 319.037986552711 L 189.563476286822 316.418872329079 L 186.360389693211 313.639610306789 L 183.28527523293 310.705728718582 L 180.345602853069 307.623128673282 L 177.54856994107 304.398072414525 L 174.90108385587 301.037170708974 L 172.409745043778 297.547369389151 L 170.08083078 293.935935078077 L 167.92027957548 290.210440124831 L 165.933676287347 286.378746782146 L 164.126237969818 282.448990658936 L 162.502800500846 278.429563482495 L 161.067806018191 274.329095206808 L 159.82529119686 270.156435505041 L 158.778876398068 265.920634685874 L 157.931755718016 261.630924074768 L 157.286687962819 257.29669590269 L 156.845988573914 252.927482746082 L 156.611522526213 248.532936563076 L 156.584698219114 244.122807372056 L 156.766462378304 239.70692161966 L 157.157295984057 235.295160286219 L 157.75721123943 230.897436777417 L 158.565749589457 226.523674651638 L 159.581980800078 222.183785233024 L 160.804503103139 217.887645160746 L 162.231444411428 213.645073925317 L 163.860464605235 209.465811443005 L 165.688758889539 205.359495719541 L 167.713062218423 201.335640654265 L 169.92965478092 197.403614035779 L 172.334368540005 193.572615779923 L 174.922594814053 189.851656460505 L 177.689292887623 186.2495361828 L 180.628999636076 182.774823849182 L 183.735840146103 179.435836865607 L 187.003539311972 176.240621336797 L 190.425434384931 173.196932797083 L 193.994488450985 170.312217522803 L 197.70330481005 167.593594471003 L 201.54414222731 165.047837887945 L 205.508931025524 162.68136062954 L 209.589289984978 160.500198234399 L 213.776544015828 158.509993788596 L 218.061742565662 156.715983619604 L 222.435678723324 155.122983855118 L 226.888908978265 153.73537788063 L 231.411773593096 152.557104727714 L 235.994417545404 151.591648422974 L 240.626811993476 150.842028325533 L 245.298776219178 150.310790478795 L 250 150 L 254.720066361106 149.911234528811 L 259.448474657179 150.045578753851 L 264.174663932921 150.403620033714 L 268.888036510241 150.985445126548 L 273.577981749446 151.790638039835 L 278.23389993117 152.818279009493 L 282.845226205292 154.066944614887 L 287.401454552763 155.534709033754 L 291.892161706 157.219146438512 L 296.307030973433 159.117334532786 L 300.635875913792 161.225859224417 L 304.868663805849 163.540820428594 L 308.99553885964 166.057838992192 L 313.006845115526 168.772064727779 L 316.893148978009 171.678185543197 L 320.64526133184 174.77043765011 L 324.254259188714 178.042616832355 L 327.711506813715 181.488090752469 L 331.008676281718 185.099812272354 L 334.137767414994 188.870333761583 L 337.091127054574 192.791822364595 L 339.861467619212 196.856076195661 L 342.441884907277 201.054541428344 L 344.825875098439 205.37833024398 L 347.007350913685 209.818239601665 L 348.980656893984 214.364770790195 L 350.740583759744 219.008149720515 L 352.282381815183 223.738347915391 L 353.601773363783 228.545104151281 L 354.694964103085 233.417946705735 L 355.55865346934 238.346216162131 L 356.190043904768 243.319088722081 L 356.586849022545 248.32559997456 L 356.74730064706 253.354669069544 L 356.670154709445 258.395123242879 L 356.354695980912 263.435722638093 L 355.800741629023 268.465185370008 L 355.008643584609 273.472212774268 L 353.979289709751 278.445514786267 L 352.714103759877 283.373835392494 L 351.215044135792 288.245978096915 L 349.484601424144 293.05083134481 L 347.525794727603 297.777393846352 L 345.342166788773 302.414799742266 L 342.937777914596 306.952343554038 L 340.317198710782 311.379504861452 L 337.485501638488 315.685972650651 L 334.448251408227 319.861669276456 L 331.211494228652 323.896773983373 L 327.781745930521 327.78174593052 L 324.165978988777 331.507346666643 L 320.371608468256 335.064662002447 L 316.406476921043 338.445123228672 L 312.278838266016 341.640527629621 L 307.997340683471 344.643058243304 L 303.571008560111 347.445302820877 L 299.009223521949 350.040271939733 L 294.321704594842 352.421416226332 L 289.518487534521 354.582642646779 L 284.609903369994 356.518329825057 L 279.606556206115 358.223342350965 L 274.519300332972 359.693044041915 L 269.359216691462 360.923310125028 L 264.137588746054 361.910538308273 L 258.865877817247 362.651658711843 L 253.555697927644 363.144142633401 L 248.21879021684 363.38601012342 L 242.86699698147 363.375836349452 L 237.51223539784 363.1127567308 L 232.166470985414 362.596470827846 L 226.841690870287 361.827244973006 L 221.549876908341 360.805913633116 L 216.302978728378 359.533879495889 L 211.112886755841 358.013112275945 L 205.991405278015 356.246146238798 L 200.950225611704 354.236076444086 L 196.00089943433 351.986553712235 L 191.154812339257 349.501778321656 L 186.423157675816 346.786492446446 L 181.816910734073 343.845971347494 L 177.346803333791 340.686013332714 L 173.023298876327 337.312928504986 L 168.856567917336 333.733526319188 L 164.856464317179 329.955101972471 L 161.032502024796 325.985421654632 L 157.393832549569 321.832706688129 L 153.949223174303 317.505616589881 L 150.707035960963 313.01323108953 L 147.675207599181 308.365031141338 L 144.861230145773 303.570878969267 L 142.27213270169 298.640997187124 L 139.914464070831 293.585947037866 L 137.794276443053 288.416605798301 L 135.917110141579 283.144143397461 L 134.287979472677 277.779998298853 L 132.91135971314 272.335852698619 L 131.791175268643 266.823607093348 L 130.930789033472 261.255354272895 L 130.332992979556 255.643352795016 L 130 250 L 129.933437029571 244.337804624701 L 130.134339461789 238.669359076451 L 130.603146879383 233.007311428328 L 131.339700111974 227.364337198045 L 132.343239631881 221.753110973436 L 133.612405295954 216.186277948046 L 135.145237438336 210.676425430745 L 136.939179315988 205.236054393544 L 138.991080905803 199.877551121898 L 141.297204049019 194.613159031776 L 143.853228935653 189.45495071756 L 146.654261918553 184.414800294571 L 149.694844643692 179.504356099494 L 152.968964480265 174.735013811415 L 156.470066231196 170.117890055388 L 160.191065101682 165.663796549586 L 164.124360900508 161.383214856023 L 168.261853445996 157.286271793676 L 172.59495914564 153.382715571515 L 177.114628715733 149.681892697507 L 181.811366004632 146.192725718061 L 186.675247880654 142.92369184071 L 191.695945143132 139.882802490949 L 196.862744412678 137.077583852241 L 202.164570954364 134.515058436089 L 207.590012385289 132.201727726931 L 213.127343215869 130.14355594429 L 218.764550172094 128.345954962244 L 224.48935824415 126.813770423782 L 230.28925740493 125.551269085013 L 236.15152994031 124.562127421556 L 242.063278331494 123.849421526666 L 248.011453628323 123.415618327822 L 253.982884251106 123.262568145625 L 259.964305157436 123.391498615893 L 265.942387309379 123.803009992798 L 271.903767375597 124.497071847882 L 277.835077602199 125.473021176616 L 283.722975785574 126.729561921093 L 289.554175279993 128.26476591422 L 295.315474972501 130.076075247611 L 300.993789157505 132.160306062177 L 306.57617724347 134.513653757185 L 312.049873224301 137.13169961035 L 317.402314848357 140.009418798322 L 322.621172418495 143.141189803726 L 327.694377157169 146.52080519177 L 332.61014907143 150.141483736257 L 337.357024253568 153.995883871776 L 341.923881554251 158.076118445749 L 346.299968566215 162.373770741027 L 350.474926857963 166.87991173677 L 354.438816398414 171.585118572439 L 358.182139115112 176.479494176941 L 361.695861530386 181.55268802221 L 364.971436421755 186.793917957855 L 368.000823454945 192.191993080932 L 370.776508740012 197.735337592462 L 373.291523263376 203.412015589894 L 375.53946015096 209.209756742507 L 377.514490720121 215.115982794577 L 379.21137928069 221.117834839098 L 380.625496648123 227.20220130295 L 381.752832334563 233.35574658266 L 382.590005386506 239.564940268196 L 383.134273840715 245.816086890793 L 383.383542773054 252.095356129396 L 383.336370918017 258.388813409116 L 382.991975839903 264.682450823981 L 382.350237639749 270.96221831539 L 381.411701185441 277.214055036844 L 380.177576855688 283.423920834956 L 378.649739791855 289.577827776268 L 376.83072765503 295.661871649065 L 374.723736889024 301.662263369287 L 372.332617493406 307.565360219597 L 369.661866314009 313.357696850881 L 366.716618861735 319.02601597575 L 363.502639673811 324.557298684146 L 360.026311234993 329.938794311776 L 356.294621479481 335.158049792923 L 352.315149897595 340.202938430146 L 348.096052274452 345.06168801451 L 343.646044091045 349.722908231249 L 338.974382621235 354.175617287204 L 334.090847761189 358.409267697944 L 329.005721630747 362.413771174198 L 323.72976698911 366.179522549077 L 318.274204509986 369.697422689582 L 312.650688964058 372.958900337995 L 306.871284359226 375.955932831019 L 300.94843809156 378.681065646934 L 294.894954162264 381.127430733498 L 288.723965518245 383.28876357196 L 282.448905575971 385.159418935277 L 276.083478990333 386.734385301433 L 269.6416317321 388.009297885688 L 263.137520539265 388.98045025859 L 256.585481809208 389.644804519683 L 250.000000000001 390 L 243.395675610509 390.044360469668 L 236.787192810081 389.776899830272 L 230.189286789577 389.197326274948 L 223.616710906331 388.3060449026 L 217.084203696318 387.104158776072 L 210.606455827262 385.593468417585 L 204.198077066782 383.776469738215 L 197.87356333985 381.656350401776 L 191.647263949796 379.236984626907 L 185.533349036985 376.522926434749 L 179.545777348912 373.519401353111 L 173.698264394992 370.232296591487 L 168.004251058629 366.668149704809 L 162.476872738355 362.834135767249 L 157.128929088784 358.738053080805 L 151.972854431012 354.388307446747 L 147.020688900759 349.793895031338 L 142.284050401067 344.964383860477 L 137.774107424749 339.909893981075 L 133.501552810008 334.641076330116 L 129.476578490696 329.169090355331 L 125.708851300631 323.505580434354 L 122.207489889175 317.662651142079 L 118.981042802921 311.652841418623 L 116.037467785864 305.489097692939 L 113.384112347846 299.184746019616 L 111.027695648323 292.753463288778 L 108.974291739671 286.209247571203 L 107.229314211347 279.56638766298 L 105.79750227311 272.839431895875 L 104.682908312453 266.043156281511 L 103.888886958101 259.192532059092 L 103.418085678189 252.302692717914 L 103.272436938311 245.388900567331 L 103.45315194123 238.466512928007 L 103.960715966509 231.550948019335 L 104.794885324786 224.657650618815 L 105.954685937841 217.80205756987 L 107.438413551937 210.999563215119 L 109.243635588317 204.265484832508 L 111.367194631014 197.615028151914 L 113.805213548497 191.063253029799 L 116.553102241972 184.625039359411 L 119.605566009473 178.315053293665 L 122.95661551124 172.147713857324 L 126.599578318235 166.137160024462 L 130.527112022029 160.297218336313 L 134.731218880741 154.641371133597 L 139.203261972204 149.182725476236 L 143.933982822018 143.933982822018 L 148.913520470831 138.907409534213 L 154.131431941797 134.114808286522 L 159.576714065922 129.567490431844 L 165.237826619898 125.276249399397 L 171.102716727891 121.251335182532 L 177.158844475821 117.502429977368 L 183.393209683814 114.038625029843 L 189.792379779767 110.868398746309 L 196.342518714309 107.999596120026 L 203.029416855007 105.439409523137 L 209.83852179527 103.194360910723 L 216.754970011167 101.270285480535 L 223.763619297361 99.6723168287816 L 230.849081911374 98.4048736391478 L 237.99575835364 97.4716479388314 L 245.18787170923 96.8755949519699 L 252.409502475633 96.6189245773133 L 259.644623799701 96.7030945134174 L 266.877137045802 97.1288050509933 L 274.090907616195 97.8959955483487 L 281.269800943973 99.0038426021235 L 288.397718578253 100.450759921739 L 295.458634280914 102.234399912178 L 302.43663005397 104.351656965886 L 309.315932016588 106.79867246075 L 316.080946050899 109.570841457274 L 322.716293136092 112.662821084217 L 329.206844290757 116.068540598186 L 335.537755044109 119.781213098823 L 341.694499357625 123.793348877508 L 347.662902919637 128.096770373752 L 353.429175736619 132.682628709796 L 358.979943946356 137.541421770284 L 364.302280779677 142.663013790381 L 369.383736599205 148.036656412161 L 374.212367945458 153.651011165751 L 378.776765522698 159.494173328387 L 383.066081059117 165.55369711131 L 387.070052978346 171.816622121365 L 390.779030821762 178.269501041151 L 394.183998363727 184.898428468672 L 397.276595364699 191.689070854746 L 400.049137910049 198.626697473773 L 402.494637285498 205.69621236097 L 404.60681734323 212.88218714691 L 406.380130316007 220.168894717952 L 407.809771040019 227.540343629149 L 408.891689550652 234.980313194364 L 409.622602018923 242.472389176598 L 410 250 L 410.022157968908 257.546453403684 L 409.688139122334 265.094973456289 L 408.997799429279 272.628737849176 L 407.951789917173 280.130915385384 L 406.551557184026 287.5847035808 L 404.799342131123 294.973366293524 L 402.698176914766 302.28027129718 L 400.251880119542 309.488927713843 L 397.465050159615 316.583023222306 L 394.343056918516 323.546460957806 L 390.892031641875 330.363396019736 L 387.118855101527 337.018271504589 L 383.031144053309 343.495853982236 L 378.637236014763 349.781268334704 L 373.946172392805 355.86003187782 L 368.967679995175 361.718087687561 L 363.712150963185 367.341837054505 L 358.19062116695 372.718170991543 L 352.414747107789 377.834500722018 L 346.396781375966 382.678787077491 L 340.149546715293 387.23956873667 L 333.686408749362 391.505989239448 L 327.021247427291 395.467822712599 L 320.168427249924 399.1154982464 L 313.142766340241 402.440122864362 L 305.959504424523 405.433503031238 L 298.634269793423 408.088164647644 L 291.183045314501 410.397371482901 L 283.62213357011 412.355142001089 L 275.968121196678 413.956264538793 L 268.237842503333 415.196310796651 L 260.448342449678 416.071647610464 L 252.616839064149 416.579446971445 L 244.760685385769 416.717694269004 L 236.89733101345 416.485194733432 L 229.044283348048 415.881578059781 L 221.219068613228 414.907301198309 L 213.43919274194 413.563649300934 L 205.72210221581 411.852734817219 L 198.08514494501 409.777494737586 L 190.545531276329 407.341685985584 L 183.120295217104 404.549878965183 L 175.826255962293 401.40744927324 L 168.679979811631 397.920567591404 L 161.697742563006 394.096187775842 L 154.89549246742 389.942033167256 L 148.288813829796 385.466581147713 L 141.892891338623 380.679045974775 L 135.722475206041 375.589359927368 L 129.791847198287 370.208152801713 L 124.114787634641 364.546729799364 L 118.704543431006 358.617047853177 L 113.573797262103 352.431690440596 L 108.734637913906 346.003840937145 L 104.198531895451 339.347254566428 L 99.9762963764907 332.476229006214 L 96.078073514631 325.405573713305 L 92.5133062326291 318.150578032929 L 89.2907155034289 310.726978161277 L 86.4182791972339 303.150923032492 L 83.9032125415674 295.438939204038 L 81.75195024176 287.607894816764 L 79.9701303056862 279.674962708227 L 78.5625796128583 271.657582759913 L 77.5333012641689 263.573423560918 L 76.8854637446553 255.440343472333 L 76.62139192768 247.276351178131 L 76.742559944852 239.099565809712 L 77.2495859418896 230.928176732377 L 78.1422287364459 222.780403083001 L 79.4193863896883 214.674453148896 L 81.0790966991665 206.62848367845 L 83.1185396162113 198.66055921444 L 85.5340415868013 190.788611541123 L 88.3210818105244 183.03039933611 L 91.4743004079531 175.4034681178 L 94.987508482443 167.925110578696 L 98.8537000581069 160.612327394236 L 103.065065871458 153.481788595929 L 107.613008990009 146.549795596525 L 112.488162226986 139.83224395365 L 117.680407317186 133.344586956908 L 123.178895815021 127.101800121797 L 128.972071671807 121.118346671895 L 135.047695445557 115.408144088795 L 141.392870092692 109.984531807028 L 147.994068287521 104.860240128801 L 154.83716121173 100.047360430842 L 161.907448752718 95.5573167328897 L 169.18969104636 91.400838694471 L 176.668141296569 87.5879361035639 L 184.326579801053 84.127874917536 L 192.148349109809 81.0291549134007 L 200.116390240185 78.2994890009628 L 208.213279869793 75.9457842488159 L 216.421268426237 73.9741246694192 L 224.722318990397 72.3897558056497 L 233.098146927995 71.1970711572868 L 241.530260162405 70.3996004818378 L 249.999999999999 70 L 258.488582417877 70.000044531853 L 266.977139722659 70.4006215856043 L 275.446762487927 71.2017274163896 L 283.878541677099 72.402465068253 L 292.253610857918 74.0010444080203 L 300.553188414308 75.9947841553377 L 308.758619661144 78.3801159086832 L 316.851418767537 81.1525901626931 L 324.813310394408 84.3068843076758 L 332.626270952597 87.836812597717 L 340.272569388384 91.735338069361 L 347.734807404169 95.9945863884321 L 354.995959023103 100.605861598191 L 362.039409407763 105.559663737723 L 368.848992844423 110.845708295194 L 375.409029806135 116.452947456396 L 381.704363009768 122.369593104969 L 387.720392384152 128.583141526577 L 393.443108868784 135.080399765496 L 398.85912696499 141.847513578184 L 403.955715964035 148.869996924744 L 408.720829779527 156.13276293563 L 413.143135314372 163.620156287497 L 417.21203929572 171.315986918774 L 420.917713514587 179.203565012457 L 424.251118410322 187.265737170571 L 427.20402494361 195.48492370193 L 429.769034705474 203.843156942202 L 431.939598213524 212.322120522759 L 433.710031350696 220.903189502517 L 435.075529905754 229.567471274846 L 436.03218217903 238.295847159735 L 436.576979621078 247.069014589614 L 436.707825476319 255.867529795793 L 436.423541408095 264.671850901106 L 435.72387208607 273.462381323237 L 434.609487721405 282.21951339236 L 433.081984539709 290.923672085991 L 431.143883186375 299.555358783497 L 428.798625063489 308.095194942489 L 426.050566602181 316.523965599255 L 422.904971478862 324.822662595592 L 419.368000788453 332.972527434824 L 415.446701192282 340.955093670403 L 411.148991062924 348.752228731314 L 406.483644652748 356.346175089622 L 401.460274317455 363.719590676722 L 396.08931083029 370.855588456351 L 390.381981826941 377.737775064154 L 384.350288425445 384.350288425443 L 378.006980069559 390.677834264931 L 371.365527648151 396.705721424509 L 364.440094947114 402.419895907639 L 357.245508494187 407.806973571586 L 349.797225860747 412.854271391631 L 342.111302488249 417.549837224386 L 334.204357110423 421.882478000582 L 326.093535845625 425.84178628105 L 317.796475036862 429.418165113168 L 309.33126291999 432.602851128669 L 300.716400203346 435.387935827588 L 291.970759644696 437.766384997015 L 283.113544713815 439.732056217409 L 274.164247431199 441.279714413431 L 265.142605475475 442.405045410494 L 256.068558653895 443.104667462659 L 246.962204831895 443.376140721953 L 237.843755419126 443.217974623713 L 228.733490510556 442.629633167214 L 219.651713782196 441.611538075457 L 210.618707241766 440.165069822747 L 201.654685935152 438.292566523406 L 192.779752709795 435.997320679755 L 184.013853136218 433.283573792283 L 175.376730688808 430.156508839701 L 166.887882286499 426.622240641368 L 158.566514293485 422.687804119331 L 150.431499079228 418.361140481972 L 142.501332235967 413.651081355908 L 134.794090550676 408.56733089749 L 127.327390826935 403.12044591978 L 120.118349650436 397.321814075423 L 113.183544189951 391.183630140243 L 106.538974123466 384.718870446766 L 100.200024776795 377.941265521047 L 94.1814315595143 370.865270980367 L 88.4972457803005 363.506036753343 L 83.1608019208024 355.879374687851 L 78.1846864441261 348.001724615931 L 73.5807082107039 339.890118948432 L 69.3598705708552 331.562145875534 L 65.5323451997712 323.035911252641 L 62.10744773685 314.329999254154 L 59.093615287424 305.4634318806 L 56.4983858408625 296.455627407326 L 54.3283796548455 287.326357865478 L 52.5892826513186 278.095705648355 L 51.2858318652252 268.784019338376 L 50.4218029825985 259.411868851788 L 50 250.000000000001" fill="Transparent"><animateTransform attributeName="transform" from="0 250 250" to="360 250 250" dur="10s" repeatCount="indefinite" attributeType="xml" type="rotate" /></path></svg>
